<mxfile host="app.diagrams.net" agent="Mozilla/5.0 (Windows NT 10.0; Win64; x64) AppleWebKit/537.36 (KHTML, like Gecko) Chrome/127.0.0.0 Safari/537.36" version="24.7.5" pages="3">
  <diagram name="Page-1" id="69J_8161vsEQFSDkU_qg">
    <mxGraphModel dx="2074" dy="1104" grid="1" gridSize="10" guides="1" tooltips="1" connect="1" arrows="1" fold="1" page="1" pageScale="1" pageWidth="1920" pageHeight="1200" math="0" shadow="0">
      <root>
        <mxCell id="0" />
        <mxCell id="1" parent="0" />
        <mxCell id="p4UTylEGOL3QZa_F2JF8-1" value="AWS" style="rounded=1;whiteSpace=wrap;html=1;arcSize=9;verticalAlign=top;align=left;spacing=6;spacingLeft=6;" parent="1" vertex="1">
          <mxGeometry x="270" y="80" width="210" height="240" as="geometry" />
        </mxCell>
        <mxCell id="p4UTylEGOL3QZa_F2JF8-2" value="Controller" style="rounded=1;whiteSpace=wrap;html=1;arcSize=9;" parent="1" vertex="1">
          <mxGeometry x="390" y="140" width="100" height="50" as="geometry" />
        </mxCell>
        <mxCell id="p4UTylEGOL3QZa_F2JF8-3" value="Router" style="rounded=1;whiteSpace=wrap;html=1;arcSize=9;" parent="1" vertex="1">
          <mxGeometry x="390" y="200" width="100" height="50" as="geometry" />
        </mxCell>
        <mxCell id="p4UTylEGOL3QZa_F2JF8-4" value="Private Network" style="rounded=1;whiteSpace=wrap;html=1;arcSize=9;verticalAlign=top;align=left;spacing=6;spacingLeft=9;" parent="1" vertex="1">
          <mxGeometry x="840" y="80" width="290" height="280" as="geometry" />
        </mxCell>
        <mxCell id="p4UTylEGOL3QZa_F2JF8-16" value="" style="shape=image;verticalLabelPosition=bottom;verticalAlign=top;imageAspect=0;image=data:image/svg+xml,PHN2ZyB4bWxuczp4bGluaz0iaHR0cDovL3d3dy53My5vcmcvMTk5OS94bGluayIgeG1sbnM9Imh0dHA6Ly93d3cudzMub3JnLzIwMDAvc3ZnIiB4bWw6c3BhY2U9InByZXNlcnZlIiBzdHlsZT0iZW5hYmxlLWJhY2tncm91bmQ6bmV3IDAgMCA0NTkuMyAzMTIuODsiIHZpZXdCb3g9IjAgMCA0NTkuMyAzMTIuOCIgeT0iMHB4IiB4PSIwcHgiIGlkPSJMYXllcl8xIiB2ZXJzaW9uPSIxLjEiPiYjeGE7PHN0eWxlIHR5cGU9InRleHQvY3NzIj4mI3hhOwkuc3Qwe2ZpbGw6dXJsKCNTVkdJRF8xXyk7c3Ryb2tlOiMwMjczRkI7c3Ryb2tlLXdpZHRoOjU7c3Ryb2tlLWxpbmVjYXA6cm91bmQ7c3Ryb2tlLWxpbmVqb2luOnJvdW5kO3N0cm9rZS1taXRlcmxpbWl0OjEwO30mI3hhOzwvc3R5bGU+JiN4YTs8bGluZWFyR3JhZGllbnQgeTI9IjMwNy43OTMyIiB4Mj0iMjI5LjY0NDUiIHkxPSIxMy43MDQ5IiB4MT0iMjI5LjY0NDUiIGdyYWRpZW50VW5pdHM9InVzZXJTcGFjZU9uVXNlIiBpZD0iU1ZHSURfMV8iPiYjeGE7CTxzdG9wIHN0eWxlPSJzdG9wLWNvbG9yOiNGRkZGRkYiIG9mZnNldD0iNC4zMDY4OTFlLTAzIi8+JiN4YTsJPHN0b3Agc3R5bGU9InN0b3AtY29sb3I6I0ZBRkJGQiIgb2Zmc2V0PSIwLjUwODUiLz4mI3hhOwk8c3RvcCBzdHlsZT0ic3RvcC1jb2xvcjojRjBGM0Y1IiBvZmZzZXQ9IjAuOTM1NSIvPiYjeGE7PC9saW5lYXJHcmFkaWVudD4mI3hhOzxwYXRoIGQ9Ik00NTYuOCwyMjAuNGMwLjIsNDkuNC0zOS43LDg5LjctODkuMSw4OS45Yy0wLjEsMC0wLjEsMC0wLjIsMEg5MS42Yy00OS42LTAuNC04OS41LTQxLTg5LjEtOTAuNiYjMTA7JiM5O2MwLjQtNDMuNywzMi4xLTgwLjgsNzUuMi04Ny45Yy01LjUtMzAuOSwxNS4xLTYwLjMsNDYtNjUuOGMzLjItMC42LDYuNS0wLjksOS44LTAuOWMxMy4xLDAuMiwyNS42LDUsMzUuNSwxMy41JiMxMDsmIzk7YzE3LjYtNDAuNCw0MC40LTc2LjEsMTAzLjItNzYuMWM3Ni41LDAsMTEyLjksNTkuNiwxMTIuOSwxMjIuMnY3LjljNDEuNiw4LjcsNzEuNCw0NS41LDcxLjMsODguMSIgY2xhc3M9InN0MCIvPiYjeGE7PC9zdmc+;imageBorder=none;fillOpacity=100;strokeOpacity=100;labelBorderColor=none;fontColor=#924949;fontFamily=Open Sans;fontSource=https%3A%2F%2Ffonts.googleapis.com%2Fcss%3Ffamily%3DOpen%2BSans;rounded=1;" parent="1" vertex="1">
          <mxGeometry x="520" y="130" width="274.18" height="150" as="geometry" />
        </mxCell>
        <mxCell id="p4UTylEGOL3QZa_F2JF8-17" value="&lt;font style=&quot;font-size: 47px;&quot;&gt;Network&lt;/font&gt;" style="text;html=1;align=center;verticalAlign=middle;resizable=0;points=[];autosize=1;strokeColor=none;fillColor=none;fontColor=#4D4D4D;fontFamily=Open Sans;fontSource=https%3A%2F%2Ffonts.googleapis.com%2Fcss%3Ffamily%3DOpen%2BSans;fontSize=47;fontStyle=1;rounded=1;" parent="1" vertex="1">
          <mxGeometry x="560.0037500000001" y="489.9951292526846" width="210" height="70" as="geometry" />
        </mxCell>
        <mxCell id="p4UTylEGOL3QZa_F2JF8-18" value="&lt;span style=&quot;font-family: &amp;quot;Open Sans&amp;quot;; font-size: 22px; font-style: normal; font-variant-ligatures: normal; font-variant-caps: normal; font-weight: 700; letter-spacing: normal; orphans: 2; text-indent: 0px; text-transform: none; widows: 2; word-spacing: 0px; -webkit-text-stroke-width: 0px; text-decoration-thickness: initial; text-decoration-style: initial; text-decoration-color: initial; float: none; display: inline !important;&quot;&gt;zero trust connection&lt;/span&gt;" style="text;whiteSpace=wrap;html=1;fontSize=22;fontFamily=Open Sans;fontColor=#464d4d;fillColor=none;rounded=1;align=center;" parent="1" vertex="1">
          <mxGeometry x="560.6" y="440" width="239.4" height="40" as="geometry" />
        </mxCell>
        <mxCell id="p4UTylEGOL3QZa_F2JF8-19" value="" style="group;fontFamily=Open Sans;fontSource=https%3A%2F%2Ffonts.googleapis.com%2Fcss%3Ffamily%3DOpen%2BSans;labelBackgroundColor=#E0E0E0;rounded=1;" parent="1" connectable="0" vertex="1">
          <mxGeometry x="800" y="430" width="60" height="60" as="geometry" />
        </mxCell>
        <mxCell id="p4UTylEGOL3QZa_F2JF8-20" value="" style="rounded=1;whiteSpace=wrap;html=1;fontFamily=Open Sans;fontSource=https%3A%2F%2Ffonts.googleapis.com%2Fcss%3Ffamily%3DOpen%2BSans;fillColor=#E6E6E6;strokeColor=#4F4F4F;" parent="p4UTylEGOL3QZa_F2JF8-19" vertex="1">
          <mxGeometry width="60" height="60" as="geometry" />
        </mxCell>
        <mxCell id="p4UTylEGOL3QZa_F2JF8-21" value="" style="shape=image;verticalLabelPosition=bottom;labelBackgroundColor=#fbfbfb;verticalAlign=top;aspect=fixed;imageAspect=0;image=data:image/svg+xml,PHN2ZyB4bWxuczp4bGluaz0iaHR0cDovL3d3dy53My5vcmcvMTk5OS94bGluayIgeG1sbnM9Imh0dHA6Ly93d3cudzMub3JnLzIwMDAvc3ZnIiB4bWw6c3BhY2U9InByZXNlcnZlIiBzdHlsZT0iZW5hYmxlLWJhY2tncm91bmQ6bmV3IDAgMCAzMDAgMzAwOyIgdmlld0JveD0iMCAwIDMwMCAzMDAiIHk9IjBweCIgeD0iMHB4IiBpZD0iTGF5ZXJfMSIgdmVyc2lvbj0iMS4xIj4mI3hhOzxzdHlsZSB0eXBlPSJ0ZXh0L2NzcyI+JiN4YTsJLnN0MHtmaWxsOnVybCgjU1ZHSURfMV8pO30mI3hhOwkuc3Qxe2ZpbGw6dXJsKCNTVkdJRF8wMDAwMDA3NDQ0MzE0MTY3MzU3OTYwOTU3MDAwMDAwMzAyMTc0ODkwNzQwNDY0NzYxMl8pO30mI3hhOwkuc3Qye2ZpbGw6dXJsKCNTVkdJRF8wMDAwMDA5ODkwMjgzNjQyMDI0NzM4MDEyMDAwMDAxMDI5OTUwNjI3NTE3NDQzMDM3NF8pO30mI3hhOwkuc3Qze2ZpbGw6dXJsKCNTVkdJRF8wMDAwMDA3MTUyOTU5MjEyODYxNzA3NDM4MDAwMDAxNDY5OTkwMDc4OTExODEzMjkwNl8pO30mI3hhOwkuc3Q0e2ZpbGw6dXJsKCNTVkdJRF8wMDAwMDE0NjQ1OTkxNDIwNTgxOTg5Njk0MDAwMDAwNzQxMjYwNjMzOTIzNTk1NTA3NV8pO30mI3hhOwkuc3Q1e2ZpbGw6dXJsKCNTVkdJRF8wMDAwMDEyNjMyNDUyOTU0ODQyNDI5MDIzMDAwMDAxMzI5ODQ2NDg2MTM3MzIxMDUyMl8pO30mI3hhOwkuc3Q2e2ZpbGw6dXJsKCNTVkdJRF8wMDAwMDEzMjc5MDI0MDI4ODU0NTcyODYxMDAwMDAwNzQ2NDc1MDUyMTM2MDA4NTQxNl8pO30mI3hhOzwvc3R5bGU+JiN4YTs8Zz4mI3hhOwk8Zz4mI3hhOwkJJiN4YTsJCQk8bGluZWFyR3JhZGllbnQgZ3JhZGllbnRUcmFuc2Zvcm09Im1hdHJpeCgxIDAgMCAxIDAgLTU0MikiIHkyPSI3MDguNTAwMSIgeDI9IjE1Ny4zIiB5MT0iNzA4LjUwMDEiIHgxPSIxNTcuMyIgZ3JhZGllbnRVbml0cz0idXNlclNwYWNlT25Vc2UiIGlkPSJTVkdJRF8xXyI+JiN4YTsJCQk8c3RvcCBzdHlsZT0ic3RvcC1jb2xvcjojRkMwMTQ3IiBvZmZzZXQ9IjQuMzA2ODkxZS0wMyIvPiYjeGE7CQkJPHN0b3Agc3R5bGU9InN0b3AtY29sb3I6I0Y0MDQ0RCIgb2Zmc2V0PSIzLjkxODI2OWUtMDIiLz4mI3hhOwkJCTxzdG9wIHN0eWxlPSJzdG9wLWNvbG9yOiMwMDY4RjkiIG9mZnNldD0iMC45Ii8+JiN4YTsJCTwvbGluZWFyR3JhZGllbnQ+JiN4YTsJCTxwYXRoIGQ9Ik0xNTcuMywxNjYuNSIgY2xhc3M9InN0MCIvPiYjeGE7CTwvZz4mI3hhOzwvZz4mI3hhOzxnPiYjeGE7CSYjeGE7CQk8bGluZWFyR3JhZGllbnQgZ3JhZGllbnRUcmFuc2Zvcm09Im1hdHJpeCgxIDAgMCAxIDAgLTU0MikiIHkyPSI2NTEuNDY3IiB4Mj0iMTEyLjQxNjkiIHkxPSI3NTcuMDI1IiB4MT0iMjE3Ljk3NSIgZ3JhZGllbnRVbml0cz0idXNlclNwYWNlT25Vc2UiIGlkPSJTVkdJRF8wMDAwMDA3Mjk2ODQwODMxODc2NDMzNDAyMDAwMDAwNzk0OTIxMzQzNzMzNzU5NTA1N18iPiYjeGE7CQk8c3RvcCBzdHlsZT0ic3RvcC1jb2xvcjojRkMwMTQ3IiBvZmZzZXQ9IjQuMzA2ODkxZS0wMyIvPiYjeGE7CQk8c3RvcCBzdHlsZT0ic3RvcC1jb2xvcjojRjQwNDREIiBvZmZzZXQ9IjMuOTE4MjY5ZS0wMiIvPiYjeGE7CQk8c3RvcCBzdHlsZT0ic3RvcC1jb2xvcjojMDA2OEY5IiBvZmZzZXQ9IjAuOSIvPiYjeGE7CTwvbGluZWFyR3JhZGllbnQ+JiN4YTsJPHBhdGggZD0iTTE3OC40LDE1NGMxLjItMy42LDEuMi03LjEsMS4yLTEzLjF2LTcuMSYjMTA7JiM5OyYjOTtjMC02LDAtOS41LTMuNi0xMy4xYy0zLjYtMi40LTcuMS0zLjYtMTMuMS0zLjZoLTM1Ljd2NTkuNWgxNi43di0xNy45aDExLjlsOS41LDE3LjloMTUuNWwtMTAuNy0xNy45JiMxMDsmIzk7JiM5O0MxNzMuNiwxNTcuNSwxNzYsMTU3LjUsMTc4LjQsMTU0eiBNMTY1LjMsMTM4LjVjMCwzLjYtMS4yLDcuMS00LjgsNy4xaC0xNi43di0xNy45aDE1LjVjMy42LDAsNiwyLjQsNiw2VjEzOC41eiIgc3R5bGU9ImZpbGw6dXJsKCNTVkdJRF8wMDAwMDA3Mjk2ODQwODMxODc2NDMzNDAyMDAwMDAwNzk0OTIxMzQzNzMzNzU5NTA1N18pOyIvPiYjeGE7CSYjeGE7CQk8bGluZWFyR3JhZGllbnQgZ3JhZGllbnRUcmFuc2Zvcm09Im1hdHJpeCgxIDAgMCAxIDAgLTU0MikiIHkyPSI2NTEuNDQyIiB4Mj0iMTEyLjQ0MTkiIHkxPSI3NTcuMDAwMSIgeDE9IjIxOCIgZ3JhZGllbnRVbml0cz0idXNlclNwYWNlT25Vc2UiIGlkPSJTVkdJRF8wMDAwMDA3ODc1NzI4MDg2OTg2NTU3NzE3MDAwMDAwNTcxMzc0MTcxMzcwMDU5Nzk0N18iPiYjeGE7CQk8c3RvcCBzdHlsZT0ic3RvcC1jb2xvcjojRkMwMTQ3IiBvZmZzZXQ9IjQuMzA2ODkxZS0wMyIvPiYjeGE7CQk8c3RvcCBzdHlsZT0ic3RvcC1jb2xvcjojRjQwNDREIiBvZmZzZXQ9IjMuOTE4MjY5ZS0wMiIvPiYjeGE7CQk8c3RvcCBzdHlsZT0ic3RvcC1jb2xvcjojMDA2OEY5IiBvZmZzZXQ9IjAuOSIvPiYjeGE7CTwvbGluZWFyR3JhZGllbnQ+JiN4YTsJPHBhdGggZD0iTTIxMi41LDE0OGMwLTMzLjktMjcuNi02MS41LTYxLjUtNjEuNSYjMTA7JiM5OyYjOTtTODkuNSwxMTQuMSw4OS41LDE0OHMyNy42LDYxLjUsNjEuNSw2MS41UzIxMi41LDE4MS45LDIxMi41LDE0OHogTTE1MSwyMDAuOGMtMjkuMSwwLTUyLjgtMjMuNy01Mi44LTUyLjhzMjMuNy01Mi44LDUyLjgtNTIuOCYjMTA7JiM5OyYjOTtzNTIuOCwyMy43LDUyLjgsNTIuOFMxODAuMSwyMDAuOCwxNTEsMjAwLjh6IiBzdHlsZT0iZmlsbDp1cmwoI1NWR0lEXzAwMDAwMDc4NzU3MjgwODY5ODY1NTc3MTcwMDAwMDA1NzEzNzQxNzEzNzAwNTk3OTQ3Xyk7Ii8+JiN4YTsJJiN4YTsJCTxsaW5lYXJHcmFkaWVudCBncmFkaWVudFRyYW5zZm9ybT0ibWF0cml4KDEgMCAwIDEgMCAtNTQyKSIgeTI9IjU5NC41Mjg2IiB4Mj0iMTY5LjM1NTIiIHkxPSI3MDAuMDg2NyIgeDE9IjI3NC45MTMyIiBncmFkaWVudFVuaXRzPSJ1c2VyU3BhY2VPblVzZSIgaWQ9IlNWR0lEXzAwMDAwMTI4NDc0ODM1MTg2ODIyMzQxMzIwMDAwMDA5NDM5MjIwNzMzMzM4NzE4ODYzXyI+JiN4YTsJCTxzdG9wIHN0eWxlPSJzdG9wLWNvbG9yOiNGQzAxNDciIG9mZnNldD0iNC4zMDY4OTFlLTAzIi8+JiN4YTsJCTxzdG9wIHN0eWxlPSJzdG9wLWNvbG9yOiNGNDA0NEQiIG9mZnNldD0iMy45MTgyNjllLTAyIi8+JiN4YTsJCTxzdG9wIHN0eWxlPSJzdG9wLWNvbG9yOiMwMDY4RjkiIG9mZnNldD0iMC45Ii8+JiN4YTsJPC9saW5lYXJHcmFkaWVudD4mI3hhOwk8cGF0aCBkPSJNMTU2LjcsNzguNWMzMy42LDIuMiw2MS42LDMwLjMsNjMuOCw2My44JiMxMDsmIzk7JiM5O2MwLjIsMi4zLDIuMSw0LDQuMyw0YzAuMSwwLDAuMiwwLDAuMywwYzIuNC0wLjIsNC4yLTIuMiw0LTQuNmMtMS44LTI3LjEtMTguNS01MS00MS43LTYzLjNoMjdsLTMuMywzLjNjLTEuNywxLjctMS43LDQuNCwwLDYuMSYjMTA7JiM5OyYjOTtjMC44LDAuOCwyLDEuMywzLjEsMS4zczIuMi0wLjQsMy4xLTEuM0wyMjgsNzcuMWMxLjctMS43LDEuNy00LjQsMC02LjFsLTEwLjctMTAuN2MtMS43LTEuNy00LjQtMS43LTYuMSwwcy0xLjcsNC40LDAsNi4xbDMuMywzLjMmIzEwOyYjOTsmIzk7SDE1N2MtMi4zLDAtNC4zLDEuOS00LjMsNC4yQzE1Mi41LDc2LjQsMTU0LjMsNzguMywxNTYuNyw3OC41eiIgc3R5bGU9ImZpbGw6dXJsKCNTVkdJRF8wMDAwMDEyODQ3NDgzNTE4NjgyMjM0MTMyMDAwMDAwOTQzOTIyMDczMzMzODcxODg2M18pOyIvPiYjeGE7CSYjeGE7CQk8bGluZWFyR3JhZGllbnQgZ3JhZGllbnRUcmFuc2Zvcm09Im1hdHJpeCgxIDAgMCAxIDAgLTU0MikiIHkyPSI2NTEuNDgyNyIgeDI9IjExMi40MDExIiB5MT0iNzU3LjA0MDgiIHgxPSIyMTcuOTU5MiIgZ3JhZGllbnRVbml0cz0idXNlclNwYWNlT25Vc2UiIGlkPSJTVkdJRF8wMDAwMDA3MTUzODg4MTI5ODUwODMxNjgzMDAwMDAxMjMyMjUwNjI3NjQ0NDYzODA5Nl8iPiYjeGE7CQk8c3RvcCBzdHlsZT0ic3RvcC1jb2xvcjojRkMwMTQ3IiBvZmZzZXQ9IjQuMzA2ODkxZS0wMyIvPiYjeGE7CQk8c3RvcCBzdHlsZT0ic3RvcC1jb2xvcjojRjQwNDREIiBvZmZzZXQ9IjMuOTE4MjY5ZS0wMiIvPiYjeGE7CQk8c3RvcCBzdHlsZT0ic3RvcC1jb2xvcjojMDA2OEY5IiBvZmZzZXQ9IjAuOSIvPiYjeGE7CTwvbGluZWFyR3JhZGllbnQ+JiN4YTsJPHBhdGggZD0iTTcyLjgsMTQyYzAsMi4zLDEuOSw0LjMsNC4yLDQuM2gwLjEmIzEwOyYjOTsmIzk7YzIuMywwLDQuMi0xLjgsNC4zLTRjMi4yLTMzLjYsMzAuMy02MS42LDYzLjgtNjMuOGMyLjQtMC4yLDQuMi0yLjIsNC00LjZzLTIuMi00LjItNC42LTRjLTI3LjEsMS44LTUxLDE4LjUtNjMuMyw0MS43di0yN2wzLjMsMy4zJiMxMDsmIzk7JiM5O2MwLjgsMC44LDIsMS4zLDMuMSwxLjNzMi4yLTAuNCwzLjEtMS4zYzEuNy0xLjcsMS43LTQuNCwwLTYuMUw4MC4yLDcxLjFjLTEuNy0xLjctNC40LTEuNy02LjEsMEw2My40LDgxLjhjLTEuNywxLjctMS43LDQuNCwwLDYuMSYjMTA7JiM5OyYjOTtjMS43LDEuNyw0LjQsMS43LDYuMSwwbDMuMy0zLjNWMTQyeiIgc3R5bGU9ImZpbGw6dXJsKCNTVkdJRF8wMDAwMDA3MTUzODg4MTI5ODUwODMxNjgzMDAwMDAxMjMyMjUwNjI3NjQ0NDYzODA5Nl8pOyIvPiYjeGE7CSYjeGE7CQk8bGluZWFyR3JhZGllbnQgZ3JhZGllbnRUcmFuc2Zvcm09Im1hdHJpeCgxIDAgMCAxIDAgLTU0MikiIHkyPSI3MDguMzMwMyIgeDI9IjU1LjU1MzYiIHkxPSI4MTMuODg4MiIgeDE9IjE2MS4xMTE4IiBncmFkaWVudFVuaXRzPSJ1c2VyU3BhY2VPblVzZSIgaWQ9IlNWR0lEXzAwMDAwMDMzMzQ2MTMxNjU2MDEzMzg3ODIwMDAwMDE1NDY1ODY4MzY1ODI4MjY5OTc1XyI+JiN4YTsJCTxzdG9wIHN0eWxlPSJzdG9wLWNvbG9yOiNGQzAxNDciIG9mZnNldD0iNC4zMDY4OTFlLTAzIi8+JiN4YTsJCTxzdG9wIHN0eWxlPSJzdG9wLWNvbG9yOiNGNDA0NEQiIG9mZnNldD0iMy45MTgyNjllLTAyIi8+JiN4YTsJCTxzdG9wIHN0eWxlPSJzdG9wLWNvbG9yOiMwMDY4RjkiIG9mZnNldD0iMC45Ii8+JiN4YTsJPC9saW5lYXJHcmFkaWVudD4mI3hhOwk8cGF0aCBkPSJNMTQ1LjMsMjE3LjUmIzEwOyYjOTsmIzk7Yy0zMy42LTIuMi02MS42LTMwLjMtNjMuOC02My44Yy0wLjItMi40LTIuMi00LjItNC42LTRzLTQuMiwyLjItNCw0LjZjMS44LDI3LjEsMTguNSw1MSw0MS43LDYzLjNoLTI3bDMuMy0zLjMmIzEwOyYjOTsmIzk7YzEuNy0xLjcsMS43LTQuNCwwLTYuMXMtNC40LTEuNy02LjEsMGwtMTAuNywxMC43Yy0xLjcsMS43LTEuNyw0LjQsMCw2LjFsMTAuNywxMC43YzAuOCwwLjgsMiwxLjMsMy4xLDEuM3MyLjItMC40LDMuMS0xLjMmIzEwOyYjOTsmIzk7YzEuNy0xLjcsMS43LTQuNCwwLTYuMWwtMy4zLTMuM0gxNDVjMi4zLDAsNC4zLTEuOSw0LjMtNC4yQzE0OS41LDIxOS42LDE0Ny43LDIxNy43LDE0NS4zLDIxNy41eiIgc3R5bGU9ImZpbGw6dXJsKCNTVkdJRF8wMDAwMDAzMzM0NjEzMTY1NjAxMzM4NzgyMDAwMDAxNTQ2NTg2ODM2NTgyODI2OTk3NV8pOyIvPiYjeGE7CSYjeGE7CQk8bGluZWFyR3JhZGllbnQgZ3JhZGllbnRUcmFuc2Zvcm09Im1hdHJpeCgxIDAgMCAxIDAgLTU0MikiIHkyPSI2NTEuMzkwMSIgeDI9IjExMi40OTM5IiB5MT0iNzU2Ljk0ODEiIHgxPSIyMTguMDUyIiBncmFkaWVudFVuaXRzPSJ1c2VyU3BhY2VPblVzZSIgaWQ9IlNWR0lEXzAwMDAwMDM0ODA1MDQ5NzA0NDA4ODAxNzcwMDAwMDA0MDUyNDg4ODY4ODkxNzQyNjM2XyI+JiN4YTsJCTxzdG9wIHN0eWxlPSJzdG9wLWNvbG9yOiNGQzAxNDciIG9mZnNldD0iNC4zMDY4OTFlLTAzIi8+JiN4YTsJCTxzdG9wIHN0eWxlPSJzdG9wLWNvbG9yOiNGNDA0NEQiIG9mZnNldD0iMy45MTgyNjllLTAyIi8+JiN4YTsJCTxzdG9wIHN0eWxlPSJzdG9wLWNvbG9yOiMwMDY4RjkiIG9mZnNldD0iMC45Ii8+JiN4YTsJPC9saW5lYXJHcmFkaWVudD4mI3hhOwk8cGF0aCBkPSJNMjM4LjYsMjA4LjFjLTEuNy0xLjctNC40LTEuNy02LjEsMCYjMTA7JiM5OyYjOTtsLTMuMywzLjNWMTU0YzAtMi4zLTEuOS00LjMtNC4yLTQuM2gtMC4xYy0yLjMsMC00LjIsMS44LTQuMyw0Yy0yLjIsMzMuNi0zMC4zLDYxLjYtNjMuOCw2My44Yy0yLjQsMC4yLTQuMiwyLjItNCw0LjYmIzEwOyYjOTsmIzk7YzAuMiwyLjMsMi4xLDQsNC4zLDRjMC4xLDAsMC4yLDAsMC4zLDBjMjcuMS0xLjgsNTEtMTguNSw2My4zLTQxLjd2MjdsLTMuMy0zLjNjLTEuNy0xLjctNC40LTEuNy02LjEsMHMtMS43LDQuNCwwLDYuMWwxMC43LDEwLjcmIzEwOyYjOTsmIzk7YzAuOCwwLjgsMiwxLjMsMy4xLDEuM3MyLjItMC40LDMuMS0xLjNsMTAuNy0xMC43QzI0MC4zLDIxMi41LDI0MC4zLDIwOS43LDIzOC42LDIwOC4xeiIgc3R5bGU9ImZpbGw6dXJsKCNTVkdJRF8wMDAwMDAzNDgwNTA0OTcwNDQwODgwMTc3MDAwMDAwNDA1MjQ4ODg2ODg5MTc0MjYzNl8pOyIvPiYjeGE7PC9nPiYjeGE7PC9zdmc+;clipPath=inset(18.33% 19.33% 20% 19.33%);fontFamily=Open Sans;fontSource=https%3A%2F%2Ffonts.googleapis.com%2Fcss%3Ffamily%3DOpen%2BSans;rounded=1;" parent="p4UTylEGOL3QZa_F2JF8-19" vertex="1">
          <mxGeometry width="59.67409437657008" height="59.99980761792453" as="geometry" />
        </mxCell>
        <mxCell id="p4UTylEGOL3QZa_F2JF8-22" value="" style="group;fontFamily=Open Sans;fontSource=https%3A%2F%2Ffonts.googleapis.com%2Fcss%3Ffamily%3DOpen%2BSans;rounded=1;" parent="1" connectable="0" vertex="1">
          <mxGeometry x="480" y="430" width="60" height="60" as="geometry" />
        </mxCell>
        <mxCell id="p4UTylEGOL3QZa_F2JF8-23" value="" style="rounded=1;whiteSpace=wrap;html=1;fontFamily=Open Sans;fontSource=https%3A%2F%2Ffonts.googleapis.com%2Fcss%3Ffamily%3DOpen%2BSans;fillColor=#E6E6E6;strokeColor=#4F4F4F;" parent="p4UTylEGOL3QZa_F2JF8-22" vertex="1">
          <mxGeometry width="60" height="59.99999999999999" as="geometry" />
        </mxCell>
        <mxCell id="p4UTylEGOL3QZa_F2JF8-24" value="" style="shape=image;verticalLabelPosition=bottom;labelBackgroundColor=#E0E0E0;verticalAlign=top;aspect=fixed;imageAspect=0;image=data:image/svg+xml,PHN2ZyB4bWxuczp4bGluaz0iaHR0cDovL3d3dy53My5vcmcvMTk5OS94bGluayIgeG1sbnM9Imh0dHA6Ly93d3cudzMub3JnLzIwMDAvc3ZnIiB4bWw6c3BhY2U9InByZXNlcnZlIiBzdHlsZT0iZW5hYmxlLWJhY2tncm91bmQ6bmV3IDAgMCAzMDAgMzAwOyIgdmlld0JveD0iMCAwIDMwMCAzMDAiIHk9IjBweCIgeD0iMHB4IiBpZD0iTGF5ZXJfMSIgdmVyc2lvbj0iMS4xIj4mI3hhOzxzdHlsZSB0eXBlPSJ0ZXh0L2NzcyI+JiN4YTsJLnN0MHtmaWxsOnVybCgjU1ZHSURfMV8pO30mI3hhOwkuc3Qxe2ZpbGw6dXJsKCNTVkdJRF8wMDAwMDA3NDQ0MzE0MTY3MzU3OTYwOTU3MDAwMDAwMzAyMTc0ODkwNzQwNDY0NzYxMl8pO30mI3hhOwkuc3Qye2ZpbGw6dXJsKCNTVkdJRF8wMDAwMDA5ODkwMjgzNjQyMDI0NzM4MDEyMDAwMDAxMDI5OTUwNjI3NTE3NDQzMDM3NF8pO30mI3hhOwkuc3Qze2ZpbGw6dXJsKCNTVkdJRF8wMDAwMDA3MTUyOTU5MjEyODYxNzA3NDM4MDAwMDAxNDY5OTkwMDc4OTExODEzMjkwNl8pO30mI3hhOwkuc3Q0e2ZpbGw6dXJsKCNTVkdJRF8wMDAwMDE0NjQ1OTkxNDIwNTgxOTg5Njk0MDAwMDAwNzQxMjYwNjMzOTIzNTk1NTA3NV8pO30mI3hhOwkuc3Q1e2ZpbGw6dXJsKCNTVkdJRF8wMDAwMDEyNjMyNDUyOTU0ODQyNDI5MDIzMDAwMDAxMzI5ODQ2NDg2MTM3MzIxMDUyMl8pO30mI3hhOwkuc3Q2e2ZpbGw6dXJsKCNTVkdJRF8wMDAwMDEzMjc5MDI0MDI4ODU0NTcyODYxMDAwMDAwNzQ2NDc1MDUyMTM2MDA4NTQxNl8pO30mI3hhOzwvc3R5bGU+JiN4YTs8Zz4mI3hhOwk8Zz4mI3hhOwkJJiN4YTsJCQk8bGluZWFyR3JhZGllbnQgZ3JhZGllbnRUcmFuc2Zvcm09Im1hdHJpeCgxIDAgMCAxIDAgLTU0MikiIHkyPSI3MDguNTAwMSIgeDI9IjE1Ny4zIiB5MT0iNzA4LjUwMDEiIHgxPSIxNTcuMyIgZ3JhZGllbnRVbml0cz0idXNlclNwYWNlT25Vc2UiIGlkPSJTVkdJRF8xXyI+JiN4YTsJCQk8c3RvcCBzdHlsZT0ic3RvcC1jb2xvcjojRkMwMTQ3IiBvZmZzZXQ9IjQuMzA2ODkxZS0wMyIvPiYjeGE7CQkJPHN0b3Agc3R5bGU9InN0b3AtY29sb3I6I0Y0MDQ0RCIgb2Zmc2V0PSIzLjkxODI2OWUtMDIiLz4mI3hhOwkJCTxzdG9wIHN0eWxlPSJzdG9wLWNvbG9yOiMwMDY4RjkiIG9mZnNldD0iMC45Ii8+JiN4YTsJCTwvbGluZWFyR3JhZGllbnQ+JiN4YTsJCTxwYXRoIGQ9Ik0xNTcuMywxNjYuNSIgY2xhc3M9InN0MCIvPiYjeGE7CTwvZz4mI3hhOzwvZz4mI3hhOzxnPiYjeGE7CSYjeGE7CQk8bGluZWFyR3JhZGllbnQgZ3JhZGllbnRUcmFuc2Zvcm09Im1hdHJpeCgxIDAgMCAxIDAgLTU0MikiIHkyPSI2NTEuNDY3IiB4Mj0iMTEyLjQxNjkiIHkxPSI3NTcuMDI1IiB4MT0iMjE3Ljk3NSIgZ3JhZGllbnRVbml0cz0idXNlclNwYWNlT25Vc2UiIGlkPSJTVkdJRF8wMDAwMDA3Mjk2ODQwODMxODc2NDMzNDAyMDAwMDAwNzk0OTIxMzQzNzMzNzU5NTA1N18iPiYjeGE7CQk8c3RvcCBzdHlsZT0ic3RvcC1jb2xvcjojRkMwMTQ3IiBvZmZzZXQ9IjQuMzA2ODkxZS0wMyIvPiYjeGE7CQk8c3RvcCBzdHlsZT0ic3RvcC1jb2xvcjojRjQwNDREIiBvZmZzZXQ9IjMuOTE4MjY5ZS0wMiIvPiYjeGE7CQk8c3RvcCBzdHlsZT0ic3RvcC1jb2xvcjojMDA2OEY5IiBvZmZzZXQ9IjAuOSIvPiYjeGE7CTwvbGluZWFyR3JhZGllbnQ+JiN4YTsJPHBhdGggZD0iTTE3OC40LDE1NGMxLjItMy42LDEuMi03LjEsMS4yLTEzLjF2LTcuMSYjMTA7JiM5OyYjOTtjMC02LDAtOS41LTMuNi0xMy4xYy0zLjYtMi40LTcuMS0zLjYtMTMuMS0zLjZoLTM1Ljd2NTkuNWgxNi43di0xNy45aDExLjlsOS41LDE3LjloMTUuNWwtMTAuNy0xNy45JiMxMDsmIzk7JiM5O0MxNzMuNiwxNTcuNSwxNzYsMTU3LjUsMTc4LjQsMTU0eiBNMTY1LjMsMTM4LjVjMCwzLjYtMS4yLDcuMS00LjgsNy4xaC0xNi43di0xNy45aDE1LjVjMy42LDAsNiwyLjQsNiw2VjEzOC41eiIgc3R5bGU9ImZpbGw6dXJsKCNTVkdJRF8wMDAwMDA3Mjk2ODQwODMxODc2NDMzNDAyMDAwMDAwNzk0OTIxMzQzNzMzNzU5NTA1N18pOyIvPiYjeGE7CSYjeGE7CQk8bGluZWFyR3JhZGllbnQgZ3JhZGllbnRUcmFuc2Zvcm09Im1hdHJpeCgxIDAgMCAxIDAgLTU0MikiIHkyPSI2NTEuNDQyIiB4Mj0iMTEyLjQ0MTkiIHkxPSI3NTcuMDAwMSIgeDE9IjIxOCIgZ3JhZGllbnRVbml0cz0idXNlclNwYWNlT25Vc2UiIGlkPSJTVkdJRF8wMDAwMDA3ODc1NzI4MDg2OTg2NTU3NzE3MDAwMDAwNTcxMzc0MTcxMzcwMDU5Nzk0N18iPiYjeGE7CQk8c3RvcCBzdHlsZT0ic3RvcC1jb2xvcjojRkMwMTQ3IiBvZmZzZXQ9IjQuMzA2ODkxZS0wMyIvPiYjeGE7CQk8c3RvcCBzdHlsZT0ic3RvcC1jb2xvcjojRjQwNDREIiBvZmZzZXQ9IjMuOTE4MjY5ZS0wMiIvPiYjeGE7CQk8c3RvcCBzdHlsZT0ic3RvcC1jb2xvcjojMDA2OEY5IiBvZmZzZXQ9IjAuOSIvPiYjeGE7CTwvbGluZWFyR3JhZGllbnQ+JiN4YTsJPHBhdGggZD0iTTIxMi41LDE0OGMwLTMzLjktMjcuNi02MS41LTYxLjUtNjEuNSYjMTA7JiM5OyYjOTtTODkuNSwxMTQuMSw4OS41LDE0OHMyNy42LDYxLjUsNjEuNSw2MS41UzIxMi41LDE4MS45LDIxMi41LDE0OHogTTE1MSwyMDAuOGMtMjkuMSwwLTUyLjgtMjMuNy01Mi44LTUyLjhzMjMuNy01Mi44LDUyLjgtNTIuOCYjMTA7JiM5OyYjOTtzNTIuOCwyMy43LDUyLjgsNTIuOFMxODAuMSwyMDAuOCwxNTEsMjAwLjh6IiBzdHlsZT0iZmlsbDp1cmwoI1NWR0lEXzAwMDAwMDc4NzU3MjgwODY5ODY1NTc3MTcwMDAwMDA1NzEzNzQxNzEzNzAwNTk3OTQ3Xyk7Ii8+JiN4YTsJJiN4YTsJCTxsaW5lYXJHcmFkaWVudCBncmFkaWVudFRyYW5zZm9ybT0ibWF0cml4KDEgMCAwIDEgMCAtNTQyKSIgeTI9IjU5NC41Mjg2IiB4Mj0iMTY5LjM1NTIiIHkxPSI3MDAuMDg2NyIgeDE9IjI3NC45MTMyIiBncmFkaWVudFVuaXRzPSJ1c2VyU3BhY2VPblVzZSIgaWQ9IlNWR0lEXzAwMDAwMTI4NDc0ODM1MTg2ODIyMzQxMzIwMDAwMDA5NDM5MjIwNzMzMzM4NzE4ODYzXyI+JiN4YTsJCTxzdG9wIHN0eWxlPSJzdG9wLWNvbG9yOiNGQzAxNDciIG9mZnNldD0iNC4zMDY4OTFlLTAzIi8+JiN4YTsJCTxzdG9wIHN0eWxlPSJzdG9wLWNvbG9yOiNGNDA0NEQiIG9mZnNldD0iMy45MTgyNjllLTAyIi8+JiN4YTsJCTxzdG9wIHN0eWxlPSJzdG9wLWNvbG9yOiMwMDY4RjkiIG9mZnNldD0iMC45Ii8+JiN4YTsJPC9saW5lYXJHcmFkaWVudD4mI3hhOwk8cGF0aCBkPSJNMTU2LjcsNzguNWMzMy42LDIuMiw2MS42LDMwLjMsNjMuOCw2My44JiMxMDsmIzk7JiM5O2MwLjIsMi4zLDIuMSw0LDQuMyw0YzAuMSwwLDAuMiwwLDAuMywwYzIuNC0wLjIsNC4yLTIuMiw0LTQuNmMtMS44LTI3LjEtMTguNS01MS00MS43LTYzLjNoMjdsLTMuMywzLjNjLTEuNywxLjctMS43LDQuNCwwLDYuMSYjMTA7JiM5OyYjOTtjMC44LDAuOCwyLDEuMywzLjEsMS4zczIuMi0wLjQsMy4xLTEuM0wyMjgsNzcuMWMxLjctMS43LDEuNy00LjQsMC02LjFsLTEwLjctMTAuN2MtMS43LTEuNy00LjQtMS43LTYuMSwwcy0xLjcsNC40LDAsNi4xbDMuMywzLjMmIzEwOyYjOTsmIzk7SDE1N2MtMi4zLDAtNC4zLDEuOS00LjMsNC4yQzE1Mi41LDc2LjQsMTU0LjMsNzguMywxNTYuNyw3OC41eiIgc3R5bGU9ImZpbGw6dXJsKCNTVkdJRF8wMDAwMDEyODQ3NDgzNTE4NjgyMjM0MTMyMDAwMDAwOTQzOTIyMDczMzMzODcxODg2M18pOyIvPiYjeGE7CSYjeGE7CQk8bGluZWFyR3JhZGllbnQgZ3JhZGllbnRUcmFuc2Zvcm09Im1hdHJpeCgxIDAgMCAxIDAgLTU0MikiIHkyPSI2NTEuNDgyNyIgeDI9IjExMi40MDExIiB5MT0iNzU3LjA0MDgiIHgxPSIyMTcuOTU5MiIgZ3JhZGllbnRVbml0cz0idXNlclNwYWNlT25Vc2UiIGlkPSJTVkdJRF8wMDAwMDA3MTUzODg4MTI5ODUwODMxNjgzMDAwMDAxMjMyMjUwNjI3NjQ0NDYzODA5Nl8iPiYjeGE7CQk8c3RvcCBzdHlsZT0ic3RvcC1jb2xvcjojRkMwMTQ3IiBvZmZzZXQ9IjQuMzA2ODkxZS0wMyIvPiYjeGE7CQk8c3RvcCBzdHlsZT0ic3RvcC1jb2xvcjojRjQwNDREIiBvZmZzZXQ9IjMuOTE4MjY5ZS0wMiIvPiYjeGE7CQk8c3RvcCBzdHlsZT0ic3RvcC1jb2xvcjojMDA2OEY5IiBvZmZzZXQ9IjAuOSIvPiYjeGE7CTwvbGluZWFyR3JhZGllbnQ+JiN4YTsJPHBhdGggZD0iTTcyLjgsMTQyYzAsMi4zLDEuOSw0LjMsNC4yLDQuM2gwLjEmIzEwOyYjOTsmIzk7YzIuMywwLDQuMi0xLjgsNC4zLTRjMi4yLTMzLjYsMzAuMy02MS42LDYzLjgtNjMuOGMyLjQtMC4yLDQuMi0yLjIsNC00LjZzLTIuMi00LjItNC42LTRjLTI3LjEsMS44LTUxLDE4LjUtNjMuMyw0MS43di0yN2wzLjMsMy4zJiMxMDsmIzk7JiM5O2MwLjgsMC44LDIsMS4zLDMuMSwxLjNzMi4yLTAuNCwzLjEtMS4zYzEuNy0xLjcsMS43LTQuNCwwLTYuMUw4MC4yLDcxLjFjLTEuNy0xLjctNC40LTEuNy02LjEsMEw2My40LDgxLjhjLTEuNywxLjctMS43LDQuNCwwLDYuMSYjMTA7JiM5OyYjOTtjMS43LDEuNyw0LjQsMS43LDYuMSwwbDMuMy0zLjNWMTQyeiIgc3R5bGU9ImZpbGw6dXJsKCNTVkdJRF8wMDAwMDA3MTUzODg4MTI5ODUwODMxNjgzMDAwMDAxMjMyMjUwNjI3NjQ0NDYzODA5Nl8pOyIvPiYjeGE7CSYjeGE7CQk8bGluZWFyR3JhZGllbnQgZ3JhZGllbnRUcmFuc2Zvcm09Im1hdHJpeCgxIDAgMCAxIDAgLTU0MikiIHkyPSI3MDguMzMwMyIgeDI9IjU1LjU1MzYiIHkxPSI4MTMuODg4MiIgeDE9IjE2MS4xMTE4IiBncmFkaWVudFVuaXRzPSJ1c2VyU3BhY2VPblVzZSIgaWQ9IlNWR0lEXzAwMDAwMDMzMzQ2MTMxNjU2MDEzMzg3ODIwMDAwMDE1NDY1ODY4MzY1ODI4MjY5OTc1XyI+JiN4YTsJCTxzdG9wIHN0eWxlPSJzdG9wLWNvbG9yOiNGQzAxNDciIG9mZnNldD0iNC4zMDY4OTFlLTAzIi8+JiN4YTsJCTxzdG9wIHN0eWxlPSJzdG9wLWNvbG9yOiNGNDA0NEQiIG9mZnNldD0iMy45MTgyNjllLTAyIi8+JiN4YTsJCTxzdG9wIHN0eWxlPSJzdG9wLWNvbG9yOiMwMDY4RjkiIG9mZnNldD0iMC45Ii8+JiN4YTsJPC9saW5lYXJHcmFkaWVudD4mI3hhOwk8cGF0aCBkPSJNMTQ1LjMsMjE3LjUmIzEwOyYjOTsmIzk7Yy0zMy42LTIuMi02MS42LTMwLjMtNjMuOC02My44Yy0wLjItMi40LTIuMi00LjItNC42LTRzLTQuMiwyLjItNCw0LjZjMS44LDI3LjEsMTguNSw1MSw0MS43LDYzLjNoLTI3bDMuMy0zLjMmIzEwOyYjOTsmIzk7YzEuNy0xLjcsMS43LTQuNCwwLTYuMXMtNC40LTEuNy02LjEsMGwtMTAuNywxMC43Yy0xLjcsMS43LTEuNyw0LjQsMCw2LjFsMTAuNywxMC43YzAuOCwwLjgsMiwxLjMsMy4xLDEuM3MyLjItMC40LDMuMS0xLjMmIzEwOyYjOTsmIzk7YzEuNy0xLjcsMS43LTQuNCwwLTYuMWwtMy4zLTMuM0gxNDVjMi4zLDAsNC4zLTEuOSw0LjMtNC4yQzE0OS41LDIxOS42LDE0Ny43LDIxNy43LDE0NS4zLDIxNy41eiIgc3R5bGU9ImZpbGw6dXJsKCNTVkdJRF8wMDAwMDAzMzM0NjEzMTY1NjAxMzM4NzgyMDAwMDAxNTQ2NTg2ODM2NTgyODI2OTk3NV8pOyIvPiYjeGE7CSYjeGE7CQk8bGluZWFyR3JhZGllbnQgZ3JhZGllbnRUcmFuc2Zvcm09Im1hdHJpeCgxIDAgMCAxIDAgLTU0MikiIHkyPSI2NTEuMzkwMSIgeDI9IjExMi40OTM5IiB5MT0iNzU2Ljk0ODEiIHgxPSIyMTguMDUyIiBncmFkaWVudFVuaXRzPSJ1c2VyU3BhY2VPblVzZSIgaWQ9IlNWR0lEXzAwMDAwMDM0ODA1MDQ5NzA0NDA4ODAxNzcwMDAwMDA0MDUyNDg4ODY4ODkxNzQyNjM2XyI+JiN4YTsJCTxzdG9wIHN0eWxlPSJzdG9wLWNvbG9yOiNGQzAxNDciIG9mZnNldD0iNC4zMDY4OTFlLTAzIi8+JiN4YTsJCTxzdG9wIHN0eWxlPSJzdG9wLWNvbG9yOiNGNDA0NEQiIG9mZnNldD0iMy45MTgyNjllLTAyIi8+JiN4YTsJCTxzdG9wIHN0eWxlPSJzdG9wLWNvbG9yOiMwMDY4RjkiIG9mZnNldD0iMC45Ii8+JiN4YTsJPC9saW5lYXJHcmFkaWVudD4mI3hhOwk8cGF0aCBkPSJNMjM4LjYsMjA4LjFjLTEuNy0xLjctNC40LTEuNy02LjEsMCYjMTA7JiM5OyYjOTtsLTMuMywzLjNWMTU0YzAtMi4zLTEuOS00LjMtNC4yLTQuM2gtMC4xYy0yLjMsMC00LjIsMS44LTQuMyw0Yy0yLjIsMzMuNi0zMC4zLDYxLjYtNjMuOCw2My44Yy0yLjQsMC4yLTQuMiwyLjItNCw0LjYmIzEwOyYjOTsmIzk7YzAuMiwyLjMsMi4xLDQsNC4zLDRjMC4xLDAsMC4yLDAsMC4zLDBjMjcuMS0xLjgsNTEtMTguNSw2My4zLTQxLjd2MjdsLTMuMy0zLjNjLTEuNy0xLjctNC40LTEuNy02LjEsMHMtMS43LDQuNCwwLDYuMWwxMC43LDEwLjcmIzEwOyYjOTsmIzk7YzAuOCwwLjgsMiwxLjMsMy4xLDEuM3MyLjItMC40LDMuMS0xLjNsMTAuNy0xMC43QzI0MC4zLDIxMi41LDI0MC4zLDIwOS43LDIzOC42LDIwOC4xeiIgc3R5bGU9ImZpbGw6dXJsKCNTVkdJRF8wMDAwMDAzNDgwNTA0OTcwNDQwODgwMTc3MDAwMDAwNDA1MjQ4ODg2ODg5MTc0MjYzNl8pOyIvPiYjeGE7PC9nPiYjeGE7PC9zdmc+;clipPath=inset(18.33% 19.33% 20% 19.33%);fontFamily=Open Sans;fontSource=https%3A%2F%2Ffonts.googleapis.com%2Fcss%3Ffamily%3DOpen%2BSans;rounded=1;" parent="p4UTylEGOL3QZa_F2JF8-22" vertex="1">
          <mxGeometry width="59.68266577765835" height="59.99980761792453" as="geometry" />
        </mxCell>
        <mxCell id="p4UTylEGOL3QZa_F2JF8-25" value="" style="endArrow=none;html=1;rounded=0;exitX=1;exitY=0.5;exitDx=0;exitDy=0;flowAnimation=1;" parent="1" source="p4UTylEGOL3QZa_F2JF8-2" edge="1">
          <mxGeometry width="50" height="50" relative="1" as="geometry">
            <mxPoint x="640" y="220" as="sourcePoint" />
            <mxPoint x="810" y="290" as="targetPoint" />
          </mxGeometry>
        </mxCell>
        <mxCell id="p4UTylEGOL3QZa_F2JF8-5" value="Docker" style="rounded=1;whiteSpace=wrap;html=1;arcSize=6;align=left;verticalAlign=top;spacingTop=2;spacingLeft=8;" parent="1" vertex="1">
          <mxGeometry x="850" y="120" width="270" height="210" as="geometry" />
        </mxCell>
        <mxCell id="p4UTylEGOL3QZa_F2JF8-26" value="" style="endArrow=none;html=1;rounded=0;flowAnimation=1;entryX=0;entryY=0.5;entryDx=0;entryDy=0;" parent="1" target="AkPibfd97T5wqIIckvMn-1" edge="1">
          <mxGeometry width="50" height="50" relative="1" as="geometry">
            <mxPoint x="810" y="290" as="sourcePoint" />
            <mxPoint x="790" y="350" as="targetPoint" />
          </mxGeometry>
        </mxCell>
        <mxCell id="p4UTylEGOL3QZa_F2JF8-27" value="" style="endArrow=none;html=1;rounded=0;entryX=0.5;entryY=1;entryDx=0;entryDy=0;flowAnimation=1;exitX=1;exitY=0.5;exitDx=0;exitDy=0;" parent="1" source="AkPibfd97T5wqIIckvMn-1" target="p4UTylEGOL3QZa_F2JF8-15" edge="1">
          <mxGeometry width="50" height="50" relative="1" as="geometry">
            <mxPoint x="990" y="302" as="sourcePoint" />
            <mxPoint x="960" y="390" as="targetPoint" />
          </mxGeometry>
        </mxCell>
        <mxCell id="AkPibfd97T5wqIIckvMn-1" value="Router" style="rounded=1;whiteSpace=wrap;html=1;arcSize=9;" parent="1" vertex="1">
          <mxGeometry x="860" y="270" width="120" height="50" as="geometry" />
        </mxCell>
        <mxCell id="p4UTylEGOL3QZa_F2JF8-6" value="Edgex Service 1" style="rounded=1;whiteSpace=wrap;html=1;arcSize=9;align=left;verticalAlign=top;spacingTop=2;spacingLeft=8;" parent="1" vertex="1">
          <mxGeometry x="860" y="150" width="120" height="30" as="geometry" />
        </mxCell>
        <mxCell id="p4UTylEGOL3QZa_F2JF8-7" value="Edgex Service 2" style="rounded=1;whiteSpace=wrap;html=1;arcSize=9;align=left;verticalAlign=top;spacingTop=2;spacingLeft=8;" parent="1" vertex="1">
          <mxGeometry x="860" y="190" width="120" height="30" as="geometry" />
        </mxCell>
        <mxCell id="p4UTylEGOL3QZa_F2JF8-8" value="Edgex Service 3" style="rounded=1;whiteSpace=wrap;html=1;arcSize=9;align=left;verticalAlign=top;spacingTop=2;spacingLeft=8;" parent="1" vertex="1">
          <mxGeometry x="860" y="230" width="120" height="30" as="geometry" />
        </mxCell>
        <mxCell id="p4UTylEGOL3QZa_F2JF8-15" value="Vault" style="rounded=1;whiteSpace=wrap;html=1;arcSize=9;align=left;verticalAlign=top;spacingTop=2;spacingLeft=8;" parent="1" vertex="1">
          <mxGeometry x="990" y="150" width="120" height="30" as="geometry" />
        </mxCell>
      </root>
    </mxGraphModel>
  </diagram>
  <diagram name="external-openziti-overlay" id="DHFsvudolL71fY8xKWDX">
    <mxGraphModel dx="2074" dy="1104" grid="1" gridSize="10" guides="1" tooltips="1" connect="1" arrows="1" fold="1" page="1" pageScale="1" pageWidth="1920" pageHeight="1200" math="0" shadow="0">
      <root>
        <mxCell id="VVJb0M9A3g1CXhi0Pu_m-0" />
        <mxCell id="VVJb0M9A3g1CXhi0Pu_m-1" parent="VVJb0M9A3g1CXhi0Pu_m-0" />
        <mxCell id="VVJb0M9A3g1CXhi0Pu_m-12" value="" style="shape=image;verticalLabelPosition=bottom;verticalAlign=top;imageAspect=0;image=data:image/svg+xml,PHN2ZyB4bWxuczp4bGluaz0iaHR0cDovL3d3dy53My5vcmcvMTk5OS94bGluayIgeG1sbnM9Imh0dHA6Ly93d3cudzMub3JnLzIwMDAvc3ZnIiB4bWw6c3BhY2U9InByZXNlcnZlIiBzdHlsZT0iZW5hYmxlLWJhY2tncm91bmQ6bmV3IDAgMCA0NTkuMyAzMTIuODsiIHZpZXdCb3g9IjAgMCA0NTkuMyAzMTIuOCIgeT0iMHB4IiB4PSIwcHgiIGlkPSJMYXllcl8xIiB2ZXJzaW9uPSIxLjEiPiYjeGE7PHN0eWxlIHR5cGU9InRleHQvY3NzIj4mI3hhOwkuc3Qwe2ZpbGw6dXJsKCNTVkdJRF8xXyk7c3Ryb2tlOiMwMjczRkI7c3Ryb2tlLXdpZHRoOjU7c3Ryb2tlLWxpbmVjYXA6cm91bmQ7c3Ryb2tlLWxpbmVqb2luOnJvdW5kO3N0cm9rZS1taXRlcmxpbWl0OjEwO30mI3hhOzwvc3R5bGU+JiN4YTs8bGluZWFyR3JhZGllbnQgeTI9IjMwNy43OTMyIiB4Mj0iMjI5LjY0NDUiIHkxPSIxMy43MDQ5IiB4MT0iMjI5LjY0NDUiIGdyYWRpZW50VW5pdHM9InVzZXJTcGFjZU9uVXNlIiBpZD0iU1ZHSURfMV8iPiYjeGE7CTxzdG9wIHN0eWxlPSJzdG9wLWNvbG9yOiNGRkZGRkYiIG9mZnNldD0iNC4zMDY4OTFlLTAzIi8+JiN4YTsJPHN0b3Agc3R5bGU9InN0b3AtY29sb3I6I0ZBRkJGQiIgb2Zmc2V0PSIwLjUwODUiLz4mI3hhOwk8c3RvcCBzdHlsZT0ic3RvcC1jb2xvcjojRjBGM0Y1IiBvZmZzZXQ9IjAuOTM1NSIvPiYjeGE7PC9saW5lYXJHcmFkaWVudD4mI3hhOzxwYXRoIGQ9Ik00NTYuOCwyMjAuNGMwLjIsNDkuNC0zOS43LDg5LjctODkuMSw4OS45Yy0wLjEsMC0wLjEsMC0wLjIsMEg5MS42Yy00OS42LTAuNC04OS41LTQxLTg5LjEtOTAuNiYjMTA7JiM5O2MwLjQtNDMuNywzMi4xLTgwLjgsNzUuMi04Ny45Yy01LjUtMzAuOSwxNS4xLTYwLjMsNDYtNjUuOGMzLjItMC42LDYuNS0wLjksOS44LTAuOWMxMy4xLDAuMiwyNS42LDUsMzUuNSwxMy41JiMxMDsmIzk7YzE3LjYtNDAuNCw0MC40LTc2LjEsMTAzLjItNzYuMWM3Ni41LDAsMTEyLjksNTkuNiwxMTIuOSwxMjIuMnY3LjljNDEuNiw4LjcsNzEuNCw0NS41LDcxLjMsODguMSIgY2xhc3M9InN0MCIvPiYjeGE7PC9zdmc+;imageBorder=none;fillOpacity=100;strokeOpacity=100;labelBorderColor=none;fontColor=#924949;fontFamily=Open Sans;fontSource=https%3A%2F%2Ffonts.googleapis.com%2Fcss%3Ffamily%3DOpen%2BSans;rounded=1;" parent="VVJb0M9A3g1CXhi0Pu_m-1" vertex="1">
          <mxGeometry x="450" y="80" width="420" height="240" as="geometry" />
        </mxCell>
        <mxCell id="VVJb0M9A3g1CXhi0Pu_m-2" value="Public Cloud Provider" style="rounded=1;whiteSpace=wrap;html=1;arcSize=9;verticalAlign=top;align=left;spacing=6;spacingLeft=6;" parent="VVJb0M9A3g1CXhi0Pu_m-1" vertex="1">
          <mxGeometry x="270" y="160" width="210" height="160" as="geometry" />
        </mxCell>
        <mxCell id="VVJb0M9A3g1CXhi0Pu_m-3" value="Controller" style="rounded=1;whiteSpace=wrap;html=1;arcSize=9;align=left;spacingLeft=9;" parent="VVJb0M9A3g1CXhi0Pu_m-1" vertex="1">
          <mxGeometry x="330" y="190" width="160" height="50" as="geometry" />
        </mxCell>
        <mxCell id="VVJb0M9A3g1CXhi0Pu_m-4" value="Router" style="rounded=1;whiteSpace=wrap;html=1;arcSize=9;align=left;spacingLeft=9;" parent="VVJb0M9A3g1CXhi0Pu_m-1" vertex="1">
          <mxGeometry x="330" y="260" width="160" height="50" as="geometry" />
        </mxCell>
        <mxCell id="VVJb0M9A3g1CXhi0Pu_m-5" value="Private Network" style="rounded=1;whiteSpace=wrap;html=1;arcSize=9;verticalAlign=top;align=left;spacing=6;spacingLeft=9;" parent="VVJb0M9A3g1CXhi0Pu_m-1" vertex="1">
          <mxGeometry x="840" y="80" width="290" height="240" as="geometry" />
        </mxCell>
        <mxCell id="VVJb0M9A3g1CXhi0Pu_m-13" value="&lt;font style=&quot;font-size: 26px;&quot;&gt;OpenZiti&amp;nbsp;Overlay Network&lt;/font&gt;" style="text;html=1;align=center;verticalAlign=middle;resizable=0;points=[];autosize=1;strokeColor=none;fillColor=none;fontColor=#4D4D4D;fontFamily=Open Sans;fontSource=https%3A%2F%2Ffonts.googleapis.com%2Fcss%3Ffamily%3DOpen%2BSans;fontSize=26;fontStyle=1;rounded=1;" parent="VVJb0M9A3g1CXhi0Pu_m-1" vertex="1">
          <mxGeometry x="490.0037500000001" y="219.9951292526846" width="340" height="40" as="geometry" />
        </mxCell>
        <mxCell id="VVJb0M9A3g1CXhi0Pu_m-14" value="&lt;span style=&quot;font-family: &amp;quot;Open Sans&amp;quot;; font-size: 18px; font-style: normal; font-variant-ligatures: normal; font-variant-caps: normal; font-weight: 700; letter-spacing: normal; orphans: 2; text-indent: 0px; text-transform: none; widows: 2; word-spacing: 0px; -webkit-text-stroke-width: 0px; text-decoration-thickness: initial; text-decoration-style: initial; text-decoration-color: initial; float: none; display: inline !important;&quot;&gt;zero trust connection&lt;/span&gt;" style="text;whiteSpace=wrap;html=1;fontSize=18;fontFamily=Open Sans;fontColor=#FC0147;fillColor=none;rounded=1;align=center;" parent="VVJb0M9A3g1CXhi0Pu_m-1" vertex="1">
          <mxGeometry x="570" y="330" width="239.4" height="30" as="geometry" />
        </mxCell>
        <mxCell id="VVJb0M9A3g1CXhi0Pu_m-21" value="" style="endArrow=none;html=1;rounded=0;flowAnimation=1;entryX=0;entryY=0.5;entryDx=0;entryDy=0;fontColor=#fc0147;strokeWidth=3;strokeColor=#fc0147;" parent="VVJb0M9A3g1CXhi0Pu_m-1" source="VVJb0M9A3g1CXhi0Pu_m-20" target="3RlJnTQkYkgjORHTnBK9-2" edge="1">
          <mxGeometry width="50" height="50" relative="1" as="geometry">
            <mxPoint x="640" y="220" as="sourcePoint" />
            <mxPoint x="810" y="290" as="targetPoint" />
          </mxGeometry>
        </mxCell>
        <mxCell id="VVJb0M9A3g1CXhi0Pu_m-18" value="" style="group;fontFamily=Open Sans;fontSource=https%3A%2F%2Ffonts.googleapis.com%2Fcss%3Ffamily%3DOpen%2BSans;rounded=1;" parent="VVJb0M9A3g1CXhi0Pu_m-1" connectable="0" vertex="1">
          <mxGeometry x="440" y="265" width="40" height="40" as="geometry" />
        </mxCell>
        <mxCell id="VVJb0M9A3g1CXhi0Pu_m-19" value="" style="rounded=1;whiteSpace=wrap;html=1;fontFamily=Open Sans;fontSource=https%3A%2F%2Ffonts.googleapis.com%2Fcss%3Ffamily%3DOpen%2BSans;fillColor=#E6E6E6;strokeColor=#4F4F4F;" parent="VVJb0M9A3g1CXhi0Pu_m-18" vertex="1">
          <mxGeometry width="40" height="39.99999999999999" as="geometry" />
        </mxCell>
        <mxCell id="VVJb0M9A3g1CXhi0Pu_m-20" value="" style="shape=image;verticalLabelPosition=bottom;labelBackgroundColor=#E0E0E0;verticalAlign=top;aspect=fixed;imageAspect=0;image=data:image/svg+xml,PHN2ZyB4bWxuczp4bGluaz0iaHR0cDovL3d3dy53My5vcmcvMTk5OS94bGluayIgeG1sbnM9Imh0dHA6Ly93d3cudzMub3JnLzIwMDAvc3ZnIiB4bWw6c3BhY2U9InByZXNlcnZlIiBzdHlsZT0iZW5hYmxlLWJhY2tncm91bmQ6bmV3IDAgMCAzMDAgMzAwOyIgdmlld0JveD0iMCAwIDMwMCAzMDAiIHk9IjBweCIgeD0iMHB4IiBpZD0iTGF5ZXJfMSIgdmVyc2lvbj0iMS4xIj4mI3hhOzxzdHlsZSB0eXBlPSJ0ZXh0L2NzcyI+JiN4YTsJLnN0MHtmaWxsOnVybCgjU1ZHSURfMV8pO30mI3hhOwkuc3Qxe2ZpbGw6dXJsKCNTVkdJRF8wMDAwMDA3NDQ0MzE0MTY3MzU3OTYwOTU3MDAwMDAwMzAyMTc0ODkwNzQwNDY0NzYxMl8pO30mI3hhOwkuc3Qye2ZpbGw6dXJsKCNTVkdJRF8wMDAwMDA5ODkwMjgzNjQyMDI0NzM4MDEyMDAwMDAxMDI5OTUwNjI3NTE3NDQzMDM3NF8pO30mI3hhOwkuc3Qze2ZpbGw6dXJsKCNTVkdJRF8wMDAwMDA3MTUyOTU5MjEyODYxNzA3NDM4MDAwMDAxNDY5OTkwMDc4OTExODEzMjkwNl8pO30mI3hhOwkuc3Q0e2ZpbGw6dXJsKCNTVkdJRF8wMDAwMDE0NjQ1OTkxNDIwNTgxOTg5Njk0MDAwMDAwNzQxMjYwNjMzOTIzNTk1NTA3NV8pO30mI3hhOwkuc3Q1e2ZpbGw6dXJsKCNTVkdJRF8wMDAwMDEyNjMyNDUyOTU0ODQyNDI5MDIzMDAwMDAxMzI5ODQ2NDg2MTM3MzIxMDUyMl8pO30mI3hhOwkuc3Q2e2ZpbGw6dXJsKCNTVkdJRF8wMDAwMDEzMjc5MDI0MDI4ODU0NTcyODYxMDAwMDAwNzQ2NDc1MDUyMTM2MDA4NTQxNl8pO30mI3hhOzwvc3R5bGU+JiN4YTs8Zz4mI3hhOwk8Zz4mI3hhOwkJJiN4YTsJCQk8bGluZWFyR3JhZGllbnQgZ3JhZGllbnRUcmFuc2Zvcm09Im1hdHJpeCgxIDAgMCAxIDAgLTU0MikiIHkyPSI3MDguNTAwMSIgeDI9IjE1Ny4zIiB5MT0iNzA4LjUwMDEiIHgxPSIxNTcuMyIgZ3JhZGllbnRVbml0cz0idXNlclNwYWNlT25Vc2UiIGlkPSJTVkdJRF8xXyI+JiN4YTsJCQk8c3RvcCBzdHlsZT0ic3RvcC1jb2xvcjojRkMwMTQ3IiBvZmZzZXQ9IjQuMzA2ODkxZS0wMyIvPiYjeGE7CQkJPHN0b3Agc3R5bGU9InN0b3AtY29sb3I6I0Y0MDQ0RCIgb2Zmc2V0PSIzLjkxODI2OWUtMDIiLz4mI3hhOwkJCTxzdG9wIHN0eWxlPSJzdG9wLWNvbG9yOiMwMDY4RjkiIG9mZnNldD0iMC45Ii8+JiN4YTsJCTwvbGluZWFyR3JhZGllbnQ+JiN4YTsJCTxwYXRoIGQ9Ik0xNTcuMywxNjYuNSIgY2xhc3M9InN0MCIvPiYjeGE7CTwvZz4mI3hhOzwvZz4mI3hhOzxnPiYjeGE7CSYjeGE7CQk8bGluZWFyR3JhZGllbnQgZ3JhZGllbnRUcmFuc2Zvcm09Im1hdHJpeCgxIDAgMCAxIDAgLTU0MikiIHkyPSI2NTEuNDY3IiB4Mj0iMTEyLjQxNjkiIHkxPSI3NTcuMDI1IiB4MT0iMjE3Ljk3NSIgZ3JhZGllbnRVbml0cz0idXNlclNwYWNlT25Vc2UiIGlkPSJTVkdJRF8wMDAwMDA3Mjk2ODQwODMxODc2NDMzNDAyMDAwMDAwNzk0OTIxMzQzNzMzNzU5NTA1N18iPiYjeGE7CQk8c3RvcCBzdHlsZT0ic3RvcC1jb2xvcjojRkMwMTQ3IiBvZmZzZXQ9IjQuMzA2ODkxZS0wMyIvPiYjeGE7CQk8c3RvcCBzdHlsZT0ic3RvcC1jb2xvcjojRjQwNDREIiBvZmZzZXQ9IjMuOTE4MjY5ZS0wMiIvPiYjeGE7CQk8c3RvcCBzdHlsZT0ic3RvcC1jb2xvcjojMDA2OEY5IiBvZmZzZXQ9IjAuOSIvPiYjeGE7CTwvbGluZWFyR3JhZGllbnQ+JiN4YTsJPHBhdGggZD0iTTE3OC40LDE1NGMxLjItMy42LDEuMi03LjEsMS4yLTEzLjF2LTcuMSYjMTA7JiM5OyYjOTtjMC02LDAtOS41LTMuNi0xMy4xYy0zLjYtMi40LTcuMS0zLjYtMTMuMS0zLjZoLTM1Ljd2NTkuNWgxNi43di0xNy45aDExLjlsOS41LDE3LjloMTUuNWwtMTAuNy0xNy45JiMxMDsmIzk7JiM5O0MxNzMuNiwxNTcuNSwxNzYsMTU3LjUsMTc4LjQsMTU0eiBNMTY1LjMsMTM4LjVjMCwzLjYtMS4yLDcuMS00LjgsNy4xaC0xNi43di0xNy45aDE1LjVjMy42LDAsNiwyLjQsNiw2VjEzOC41eiIgc3R5bGU9ImZpbGw6dXJsKCNTVkdJRF8wMDAwMDA3Mjk2ODQwODMxODc2NDMzNDAyMDAwMDAwNzk0OTIxMzQzNzMzNzU5NTA1N18pOyIvPiYjeGE7CSYjeGE7CQk8bGluZWFyR3JhZGllbnQgZ3JhZGllbnRUcmFuc2Zvcm09Im1hdHJpeCgxIDAgMCAxIDAgLTU0MikiIHkyPSI2NTEuNDQyIiB4Mj0iMTEyLjQ0MTkiIHkxPSI3NTcuMDAwMSIgeDE9IjIxOCIgZ3JhZGllbnRVbml0cz0idXNlclNwYWNlT25Vc2UiIGlkPSJTVkdJRF8wMDAwMDA3ODc1NzI4MDg2OTg2NTU3NzE3MDAwMDAwNTcxMzc0MTcxMzcwMDU5Nzk0N18iPiYjeGE7CQk8c3RvcCBzdHlsZT0ic3RvcC1jb2xvcjojRkMwMTQ3IiBvZmZzZXQ9IjQuMzA2ODkxZS0wMyIvPiYjeGE7CQk8c3RvcCBzdHlsZT0ic3RvcC1jb2xvcjojRjQwNDREIiBvZmZzZXQ9IjMuOTE4MjY5ZS0wMiIvPiYjeGE7CQk8c3RvcCBzdHlsZT0ic3RvcC1jb2xvcjojMDA2OEY5IiBvZmZzZXQ9IjAuOSIvPiYjeGE7CTwvbGluZWFyR3JhZGllbnQ+JiN4YTsJPHBhdGggZD0iTTIxMi41LDE0OGMwLTMzLjktMjcuNi02MS41LTYxLjUtNjEuNSYjMTA7JiM5OyYjOTtTODkuNSwxMTQuMSw4OS41LDE0OHMyNy42LDYxLjUsNjEuNSw2MS41UzIxMi41LDE4MS45LDIxMi41LDE0OHogTTE1MSwyMDAuOGMtMjkuMSwwLTUyLjgtMjMuNy01Mi44LTUyLjhzMjMuNy01Mi44LDUyLjgtNTIuOCYjMTA7JiM5OyYjOTtzNTIuOCwyMy43LDUyLjgsNTIuOFMxODAuMSwyMDAuOCwxNTEsMjAwLjh6IiBzdHlsZT0iZmlsbDp1cmwoI1NWR0lEXzAwMDAwMDc4NzU3MjgwODY5ODY1NTc3MTcwMDAwMDA1NzEzNzQxNzEzNzAwNTk3OTQ3Xyk7Ii8+JiN4YTsJJiN4YTsJCTxsaW5lYXJHcmFkaWVudCBncmFkaWVudFRyYW5zZm9ybT0ibWF0cml4KDEgMCAwIDEgMCAtNTQyKSIgeTI9IjU5NC41Mjg2IiB4Mj0iMTY5LjM1NTIiIHkxPSI3MDAuMDg2NyIgeDE9IjI3NC45MTMyIiBncmFkaWVudFVuaXRzPSJ1c2VyU3BhY2VPblVzZSIgaWQ9IlNWR0lEXzAwMDAwMTI4NDc0ODM1MTg2ODIyMzQxMzIwMDAwMDA5NDM5MjIwNzMzMzM4NzE4ODYzXyI+JiN4YTsJCTxzdG9wIHN0eWxlPSJzdG9wLWNvbG9yOiNGQzAxNDciIG9mZnNldD0iNC4zMDY4OTFlLTAzIi8+JiN4YTsJCTxzdG9wIHN0eWxlPSJzdG9wLWNvbG9yOiNGNDA0NEQiIG9mZnNldD0iMy45MTgyNjllLTAyIi8+JiN4YTsJCTxzdG9wIHN0eWxlPSJzdG9wLWNvbG9yOiMwMDY4RjkiIG9mZnNldD0iMC45Ii8+JiN4YTsJPC9saW5lYXJHcmFkaWVudD4mI3hhOwk8cGF0aCBkPSJNMTU2LjcsNzguNWMzMy42LDIuMiw2MS42LDMwLjMsNjMuOCw2My44JiMxMDsmIzk7JiM5O2MwLjIsMi4zLDIuMSw0LDQuMyw0YzAuMSwwLDAuMiwwLDAuMywwYzIuNC0wLjIsNC4yLTIuMiw0LTQuNmMtMS44LTI3LjEtMTguNS01MS00MS43LTYzLjNoMjdsLTMuMywzLjNjLTEuNywxLjctMS43LDQuNCwwLDYuMSYjMTA7JiM5OyYjOTtjMC44LDAuOCwyLDEuMywzLjEsMS4zczIuMi0wLjQsMy4xLTEuM0wyMjgsNzcuMWMxLjctMS43LDEuNy00LjQsMC02LjFsLTEwLjctMTAuN2MtMS43LTEuNy00LjQtMS43LTYuMSwwcy0xLjcsNC40LDAsNi4xbDMuMywzLjMmIzEwOyYjOTsmIzk7SDE1N2MtMi4zLDAtNC4zLDEuOS00LjMsNC4yQzE1Mi41LDc2LjQsMTU0LjMsNzguMywxNTYuNyw3OC41eiIgc3R5bGU9ImZpbGw6dXJsKCNTVkdJRF8wMDAwMDEyODQ3NDgzNTE4NjgyMjM0MTMyMDAwMDAwOTQzOTIyMDczMzMzODcxODg2M18pOyIvPiYjeGE7CSYjeGE7CQk8bGluZWFyR3JhZGllbnQgZ3JhZGllbnRUcmFuc2Zvcm09Im1hdHJpeCgxIDAgMCAxIDAgLTU0MikiIHkyPSI2NTEuNDgyNyIgeDI9IjExMi40MDExIiB5MT0iNzU3LjA0MDgiIHgxPSIyMTcuOTU5MiIgZ3JhZGllbnRVbml0cz0idXNlclNwYWNlT25Vc2UiIGlkPSJTVkdJRF8wMDAwMDA3MTUzODg4MTI5ODUwODMxNjgzMDAwMDAxMjMyMjUwNjI3NjQ0NDYzODA5Nl8iPiYjeGE7CQk8c3RvcCBzdHlsZT0ic3RvcC1jb2xvcjojRkMwMTQ3IiBvZmZzZXQ9IjQuMzA2ODkxZS0wMyIvPiYjeGE7CQk8c3RvcCBzdHlsZT0ic3RvcC1jb2xvcjojRjQwNDREIiBvZmZzZXQ9IjMuOTE4MjY5ZS0wMiIvPiYjeGE7CQk8c3RvcCBzdHlsZT0ic3RvcC1jb2xvcjojMDA2OEY5IiBvZmZzZXQ9IjAuOSIvPiYjeGE7CTwvbGluZWFyR3JhZGllbnQ+JiN4YTsJPHBhdGggZD0iTTcyLjgsMTQyYzAsMi4zLDEuOSw0LjMsNC4yLDQuM2gwLjEmIzEwOyYjOTsmIzk7YzIuMywwLDQuMi0xLjgsNC4zLTRjMi4yLTMzLjYsMzAuMy02MS42LDYzLjgtNjMuOGMyLjQtMC4yLDQuMi0yLjIsNC00LjZzLTIuMi00LjItNC42LTRjLTI3LjEsMS44LTUxLDE4LjUtNjMuMyw0MS43di0yN2wzLjMsMy4zJiMxMDsmIzk7JiM5O2MwLjgsMC44LDIsMS4zLDMuMSwxLjNzMi4yLTAuNCwzLjEtMS4zYzEuNy0xLjcsMS43LTQuNCwwLTYuMUw4MC4yLDcxLjFjLTEuNy0xLjctNC40LTEuNy02LjEsMEw2My40LDgxLjhjLTEuNywxLjctMS43LDQuNCwwLDYuMSYjMTA7JiM5OyYjOTtjMS43LDEuNyw0LjQsMS43LDYuMSwwbDMuMy0zLjNWMTQyeiIgc3R5bGU9ImZpbGw6dXJsKCNTVkdJRF8wMDAwMDA3MTUzODg4MTI5ODUwODMxNjgzMDAwMDAxMjMyMjUwNjI3NjQ0NDYzODA5Nl8pOyIvPiYjeGE7CSYjeGE7CQk8bGluZWFyR3JhZGllbnQgZ3JhZGllbnRUcmFuc2Zvcm09Im1hdHJpeCgxIDAgMCAxIDAgLTU0MikiIHkyPSI3MDguMzMwMyIgeDI9IjU1LjU1MzYiIHkxPSI4MTMuODg4MiIgeDE9IjE2MS4xMTE4IiBncmFkaWVudFVuaXRzPSJ1c2VyU3BhY2VPblVzZSIgaWQ9IlNWR0lEXzAwMDAwMDMzMzQ2MTMxNjU2MDEzMzg3ODIwMDAwMDE1NDY1ODY4MzY1ODI4MjY5OTc1XyI+JiN4YTsJCTxzdG9wIHN0eWxlPSJzdG9wLWNvbG9yOiNGQzAxNDciIG9mZnNldD0iNC4zMDY4OTFlLTAzIi8+JiN4YTsJCTxzdG9wIHN0eWxlPSJzdG9wLWNvbG9yOiNGNDA0NEQiIG9mZnNldD0iMy45MTgyNjllLTAyIi8+JiN4YTsJCTxzdG9wIHN0eWxlPSJzdG9wLWNvbG9yOiMwMDY4RjkiIG9mZnNldD0iMC45Ii8+JiN4YTsJPC9saW5lYXJHcmFkaWVudD4mI3hhOwk8cGF0aCBkPSJNMTQ1LjMsMjE3LjUmIzEwOyYjOTsmIzk7Yy0zMy42LTIuMi02MS42LTMwLjMtNjMuOC02My44Yy0wLjItMi40LTIuMi00LjItNC42LTRzLTQuMiwyLjItNCw0LjZjMS44LDI3LjEsMTguNSw1MSw0MS43LDYzLjNoLTI3bDMuMy0zLjMmIzEwOyYjOTsmIzk7YzEuNy0xLjcsMS43LTQuNCwwLTYuMXMtNC40LTEuNy02LjEsMGwtMTAuNywxMC43Yy0xLjcsMS43LTEuNyw0LjQsMCw2LjFsMTAuNywxMC43YzAuOCwwLjgsMiwxLjMsMy4xLDEuM3MyLjItMC40LDMuMS0xLjMmIzEwOyYjOTsmIzk7YzEuNy0xLjcsMS43LTQuNCwwLTYuMWwtMy4zLTMuM0gxNDVjMi4zLDAsNC4zLTEuOSw0LjMtNC4yQzE0OS41LDIxOS42LDE0Ny43LDIxNy43LDE0NS4zLDIxNy41eiIgc3R5bGU9ImZpbGw6dXJsKCNTVkdJRF8wMDAwMDAzMzM0NjEzMTY1NjAxMzM4NzgyMDAwMDAxNTQ2NTg2ODM2NTgyODI2OTk3NV8pOyIvPiYjeGE7CSYjeGE7CQk8bGluZWFyR3JhZGllbnQgZ3JhZGllbnRUcmFuc2Zvcm09Im1hdHJpeCgxIDAgMCAxIDAgLTU0MikiIHkyPSI2NTEuMzkwMSIgeDI9IjExMi40OTM5IiB5MT0iNzU2Ljk0ODEiIHgxPSIyMTguMDUyIiBncmFkaWVudFVuaXRzPSJ1c2VyU3BhY2VPblVzZSIgaWQ9IlNWR0lEXzAwMDAwMDM0ODA1MDQ5NzA0NDA4ODAxNzcwMDAwMDA0MDUyNDg4ODY4ODkxNzQyNjM2XyI+JiN4YTsJCTxzdG9wIHN0eWxlPSJzdG9wLWNvbG9yOiNGQzAxNDciIG9mZnNldD0iNC4zMDY4OTFlLTAzIi8+JiN4YTsJCTxzdG9wIHN0eWxlPSJzdG9wLWNvbG9yOiNGNDA0NEQiIG9mZnNldD0iMy45MTgyNjllLTAyIi8+JiN4YTsJCTxzdG9wIHN0eWxlPSJzdG9wLWNvbG9yOiMwMDY4RjkiIG9mZnNldD0iMC45Ii8+JiN4YTsJPC9saW5lYXJHcmFkaWVudD4mI3hhOwk8cGF0aCBkPSJNMjM4LjYsMjA4LjFjLTEuNy0xLjctNC40LTEuNy02LjEsMCYjMTA7JiM5OyYjOTtsLTMuMywzLjNWMTU0YzAtMi4zLTEuOS00LjMtNC4yLTQuM2gtMC4xYy0yLjMsMC00LjIsMS44LTQuMyw0Yy0yLjIsMzMuNi0zMC4zLDYxLjYtNjMuOCw2My44Yy0yLjQsMC4yLTQuMiwyLjItNCw0LjYmIzEwOyYjOTsmIzk7YzAuMiwyLjMsMi4xLDQsNC4zLDRjMC4xLDAsMC4yLDAsMC4zLDBjMjcuMS0xLjgsNTEtMTguNSw2My4zLTQxLjd2MjdsLTMuMy0zLjNjLTEuNy0xLjctNC40LTEuNy02LjEsMHMtMS43LDQuNCwwLDYuMWwxMC43LDEwLjcmIzEwOyYjOTsmIzk7YzAuOCwwLjgsMiwxLjMsMy4xLDEuM3MyLjItMC40LDMuMS0xLjNsMTAuNy0xMC43QzI0MC4zLDIxMi41LDI0MC4zLDIwOS43LDIzOC42LDIwOC4xeiIgc3R5bGU9ImZpbGw6dXJsKCNTVkdJRF8wMDAwMDAzNDgwNTA0OTcwNDQwODgwMTc3MDAwMDAwNDA1MjQ4ODg2ODg5MTc0MjYzNl8pOyIvPiYjeGE7PC9nPiYjeGE7PC9zdmc+;clipPath=inset(18.33% 19.33% 20% 19.33%);fontFamily=Open Sans;fontSource=https%3A%2F%2Ffonts.googleapis.com%2Fcss%3Ffamily%3DOpen%2BSans;rounded=1;" parent="VVJb0M9A3g1CXhi0Pu_m-18" vertex="1">
          <mxGeometry width="39.78844385177223" height="39.999871745283016" as="geometry" />
        </mxCell>
        <mxCell id="N8KM49JTUpkI08OM-zGT-0" value="" style="endArrow=none;html=1;rounded=0;fontColor=#FC0147;strokeColor=#FC0147;" parent="VVJb0M9A3g1CXhi0Pu_m-1" source="VVJb0M9A3g1CXhi0Pu_m-14" edge="1">
          <mxGeometry width="50" height="50" relative="1" as="geometry">
            <mxPoint x="760" y="360" as="sourcePoint" />
            <mxPoint x="690" y="290" as="targetPoint" />
          </mxGeometry>
        </mxCell>
        <mxCell id="N8KM49JTUpkI08OM-zGT-2" value="&lt;span style=&quot;font-family: &amp;quot;Open Sans&amp;quot;; font-size: 18px; font-style: normal; font-variant-ligatures: normal; font-variant-caps: normal; font-weight: 700; letter-spacing: normal; orphans: 2; text-indent: 0px; text-transform: none; widows: 2; word-spacing: 0px; -webkit-text-stroke-width: 0px; text-decoration-thickness: initial; text-decoration-style: initial; text-decoration-color: initial; float: none; display: inline !important;&quot;&gt;IP-based underlay traffic&lt;/span&gt;" style="text;whiteSpace=wrap;html=1;fontSize=18;fontFamily=Open Sans;fontColor=#007FFF;fillColor=none;rounded=1;align=left;strokeColor=none;" parent="VVJb0M9A3g1CXhi0Pu_m-1" vertex="1">
          <mxGeometry x="890.6" y="330" width="269.4" height="30" as="geometry" />
        </mxCell>
        <mxCell id="N8KM49JTUpkI08OM-zGT-3" value="" style="endArrow=none;html=1;rounded=0;fontColor=#FC0147;strokeColor=#007FFF;" parent="VVJb0M9A3g1CXhi0Pu_m-1" source="N8KM49JTUpkI08OM-zGT-2" edge="1">
          <mxGeometry width="50" height="50" relative="1" as="geometry">
            <mxPoint x="700" y="330" as="sourcePoint" />
            <mxPoint x="1050" y="280" as="targetPoint" />
          </mxGeometry>
        </mxCell>
        <mxCell id="N8KM49JTUpkI08OM-zGT-4" value="&lt;span style=&quot;font-family: &amp;quot;Open Sans&amp;quot;; font-size: 18px; font-style: normal; font-variant-ligatures: normal; font-variant-caps: normal; font-weight: 700; letter-spacing: normal; orphans: 2; text-indent: 0px; text-transform: none; widows: 2; word-spacing: 0px; -webkit-text-stroke-width: 0px; text-decoration-thickness: initial; text-decoration-style: initial; text-decoration-color: initial; float: none; display: inline !important;&quot;&gt;IP-based underlay traffic&lt;/span&gt;" style="text;whiteSpace=wrap;html=1;fontSize=18;fontFamily=Open Sans;fontColor=#007FFF;fillColor=none;rounded=1;align=right;strokeColor=none;" parent="VVJb0M9A3g1CXhi0Pu_m-1" vertex="1">
          <mxGeometry x="240" y="330" width="240" height="30" as="geometry" />
        </mxCell>
        <mxCell id="N8KM49JTUpkI08OM-zGT-5" value="" style="endArrow=none;html=1;rounded=0;fontColor=#FC0147;strokeColor=#007FFF;exitX=0.5;exitY=0;exitDx=0;exitDy=0;" parent="VVJb0M9A3g1CXhi0Pu_m-1" source="N8KM49JTUpkI08OM-zGT-4" edge="1">
          <mxGeometry width="50" height="50" relative="1" as="geometry">
            <mxPoint x="79.39999999999998" y="330" as="sourcePoint" />
            <mxPoint x="410" y="250" as="targetPoint" />
          </mxGeometry>
        </mxCell>
        <mxCell id="N8KM49JTUpkI08OM-zGT-6" value="" style="endArrow=none;html=1;rounded=0;flowAnimation=1;fontColor=#007FFF;strokeWidth=3;strokeColor=#007FFF;" parent="VVJb0M9A3g1CXhi0Pu_m-1" source="VVJb0M9A3g1CXhi0Pu_m-3" target="VVJb0M9A3g1CXhi0Pu_m-4" edge="1">
          <mxGeometry width="50" height="50" relative="1" as="geometry">
            <mxPoint x="400" y="395" as="sourcePoint" />
            <mxPoint x="543" y="280" as="targetPoint" />
          </mxGeometry>
        </mxCell>
        <mxCell id="VVJb0M9A3g1CXhi0Pu_m-7" value="Docker" style="rounded=1;whiteSpace=wrap;html=1;arcSize=6;align=left;verticalAlign=top;spacingTop=2;spacingLeft=8;" parent="VVJb0M9A3g1CXhi0Pu_m-1" vertex="1">
          <mxGeometry x="850" y="110" width="270" height="205" as="geometry" />
        </mxCell>
        <mxCell id="VVJb0M9A3g1CXhi0Pu_m-8" value="Edgex Service 1" style="rounded=1;whiteSpace=wrap;html=1;arcSize=9;align=left;verticalAlign=top;spacingTop=2;spacingLeft=8;" parent="VVJb0M9A3g1CXhi0Pu_m-1" vertex="1">
          <mxGeometry x="860" y="140" width="120" height="30" as="geometry" />
        </mxCell>
        <mxCell id="VVJb0M9A3g1CXhi0Pu_m-9" value="Edgex Service 2" style="rounded=1;whiteSpace=wrap;html=1;arcSize=9;align=left;verticalAlign=top;spacingTop=2;spacingLeft=8;" parent="VVJb0M9A3g1CXhi0Pu_m-1" vertex="1">
          <mxGeometry x="860" y="180" width="120" height="30" as="geometry" />
        </mxCell>
        <mxCell id="VVJb0M9A3g1CXhi0Pu_m-10" value="Edgex Service 3" style="rounded=1;whiteSpace=wrap;html=1;arcSize=9;align=left;verticalAlign=top;spacingTop=2;spacingLeft=8;" parent="VVJb0M9A3g1CXhi0Pu_m-1" vertex="1">
          <mxGeometry x="860" y="220" width="120" height="30" as="geometry" />
        </mxCell>
        <mxCell id="VVJb0M9A3g1CXhi0Pu_m-11" value="Token Provider" style="rounded=1;whiteSpace=wrap;html=1;arcSize=9;align=left;verticalAlign=top;spacingTop=2;spacingLeft=8;" parent="VVJb0M9A3g1CXhi0Pu_m-1" vertex="1">
          <mxGeometry x="990" y="140" width="120" height="30" as="geometry" />
        </mxCell>
        <mxCell id="VVJb0M9A3g1CXhi0Pu_m-23" value="" style="endArrow=none;html=1;rounded=0;entryX=0.5;entryY=1;entryDx=0;entryDy=0;flowAnimation=1;exitX=1;exitY=0.5;exitDx=0;exitDy=0;fontColor=#007FFF;strokeWidth=3;strokeColor=#007FFF;" parent="VVJb0M9A3g1CXhi0Pu_m-1" source="3RlJnTQkYkgjORHTnBK9-1" target="VVJb0M9A3g1CXhi0Pu_m-11" edge="1">
          <mxGeometry width="50" height="50" relative="1" as="geometry">
            <mxPoint x="990" y="302" as="sourcePoint" />
            <mxPoint x="960" y="390" as="targetPoint" />
            <Array as="points">
              <mxPoint x="1050" y="285" />
            </Array>
          </mxGeometry>
        </mxCell>
        <mxCell id="3RlJnTQkYkgjORHTnBK9-3" value="Router" style="rounded=1;whiteSpace=wrap;html=1;arcSize=9;align=right;spacingLeft=9;" parent="VVJb0M9A3g1CXhi0Pu_m-1" vertex="1">
          <mxGeometry x="860" y="260" width="120" height="50" as="geometry" />
        </mxCell>
        <mxCell id="3RlJnTQkYkgjORHTnBK9-0" value="" style="group;fontFamily=Open Sans;fontSource=https%3A%2F%2Ffonts.googleapis.com%2Fcss%3Ffamily%3DOpen%2BSans;rounded=1;" parent="VVJb0M9A3g1CXhi0Pu_m-1" connectable="0" vertex="1">
          <mxGeometry x="867.09" y="265" width="40" height="40" as="geometry" />
        </mxCell>
        <mxCell id="3RlJnTQkYkgjORHTnBK9-1" value="" style="rounded=1;whiteSpace=wrap;html=1;fontFamily=Open Sans;fontSource=https%3A%2F%2Ffonts.googleapis.com%2Fcss%3Ffamily%3DOpen%2BSans;fillColor=#E6E6E6;strokeColor=#4F4F4F;" parent="3RlJnTQkYkgjORHTnBK9-0" vertex="1">
          <mxGeometry width="40" height="39.99999999999999" as="geometry" />
        </mxCell>
        <mxCell id="3RlJnTQkYkgjORHTnBK9-2" value="" style="shape=image;verticalLabelPosition=bottom;labelBackgroundColor=#E0E0E0;verticalAlign=top;aspect=fixed;imageAspect=0;image=data:image/svg+xml,PHN2ZyB4bWxuczp4bGluaz0iaHR0cDovL3d3dy53My5vcmcvMTk5OS94bGluayIgeG1sbnM9Imh0dHA6Ly93d3cudzMub3JnLzIwMDAvc3ZnIiB4bWw6c3BhY2U9InByZXNlcnZlIiBzdHlsZT0iZW5hYmxlLWJhY2tncm91bmQ6bmV3IDAgMCAzMDAgMzAwOyIgdmlld0JveD0iMCAwIDMwMCAzMDAiIHk9IjBweCIgeD0iMHB4IiBpZD0iTGF5ZXJfMSIgdmVyc2lvbj0iMS4xIj4mI3hhOzxzdHlsZSB0eXBlPSJ0ZXh0L2NzcyI+JiN4YTsJLnN0MHtmaWxsOnVybCgjU1ZHSURfMV8pO30mI3hhOwkuc3Qxe2ZpbGw6dXJsKCNTVkdJRF8wMDAwMDA3NDQ0MzE0MTY3MzU3OTYwOTU3MDAwMDAwMzAyMTc0ODkwNzQwNDY0NzYxMl8pO30mI3hhOwkuc3Qye2ZpbGw6dXJsKCNTVkdJRF8wMDAwMDA5ODkwMjgzNjQyMDI0NzM4MDEyMDAwMDAxMDI5OTUwNjI3NTE3NDQzMDM3NF8pO30mI3hhOwkuc3Qze2ZpbGw6dXJsKCNTVkdJRF8wMDAwMDA3MTUyOTU5MjEyODYxNzA3NDM4MDAwMDAxNDY5OTkwMDc4OTExODEzMjkwNl8pO30mI3hhOwkuc3Q0e2ZpbGw6dXJsKCNTVkdJRF8wMDAwMDE0NjQ1OTkxNDIwNTgxOTg5Njk0MDAwMDAwNzQxMjYwNjMzOTIzNTk1NTA3NV8pO30mI3hhOwkuc3Q1e2ZpbGw6dXJsKCNTVkdJRF8wMDAwMDEyNjMyNDUyOTU0ODQyNDI5MDIzMDAwMDAxMzI5ODQ2NDg2MTM3MzIxMDUyMl8pO30mI3hhOwkuc3Q2e2ZpbGw6dXJsKCNTVkdJRF8wMDAwMDEzMjc5MDI0MDI4ODU0NTcyODYxMDAwMDAwNzQ2NDc1MDUyMTM2MDA4NTQxNl8pO30mI3hhOzwvc3R5bGU+JiN4YTs8Zz4mI3hhOwk8Zz4mI3hhOwkJJiN4YTsJCQk8bGluZWFyR3JhZGllbnQgZ3JhZGllbnRUcmFuc2Zvcm09Im1hdHJpeCgxIDAgMCAxIDAgLTU0MikiIHkyPSI3MDguNTAwMSIgeDI9IjE1Ny4zIiB5MT0iNzA4LjUwMDEiIHgxPSIxNTcuMyIgZ3JhZGllbnRVbml0cz0idXNlclNwYWNlT25Vc2UiIGlkPSJTVkdJRF8xXyI+JiN4YTsJCQk8c3RvcCBzdHlsZT0ic3RvcC1jb2xvcjojRkMwMTQ3IiBvZmZzZXQ9IjQuMzA2ODkxZS0wMyIvPiYjeGE7CQkJPHN0b3Agc3R5bGU9InN0b3AtY29sb3I6I0Y0MDQ0RCIgb2Zmc2V0PSIzLjkxODI2OWUtMDIiLz4mI3hhOwkJCTxzdG9wIHN0eWxlPSJzdG9wLWNvbG9yOiMwMDY4RjkiIG9mZnNldD0iMC45Ii8+JiN4YTsJCTwvbGluZWFyR3JhZGllbnQ+JiN4YTsJCTxwYXRoIGQ9Ik0xNTcuMywxNjYuNSIgY2xhc3M9InN0MCIvPiYjeGE7CTwvZz4mI3hhOzwvZz4mI3hhOzxnPiYjeGE7CSYjeGE7CQk8bGluZWFyR3JhZGllbnQgZ3JhZGllbnRUcmFuc2Zvcm09Im1hdHJpeCgxIDAgMCAxIDAgLTU0MikiIHkyPSI2NTEuNDY3IiB4Mj0iMTEyLjQxNjkiIHkxPSI3NTcuMDI1IiB4MT0iMjE3Ljk3NSIgZ3JhZGllbnRVbml0cz0idXNlclNwYWNlT25Vc2UiIGlkPSJTVkdJRF8wMDAwMDA3Mjk2ODQwODMxODc2NDMzNDAyMDAwMDAwNzk0OTIxMzQzNzMzNzU5NTA1N18iPiYjeGE7CQk8c3RvcCBzdHlsZT0ic3RvcC1jb2xvcjojRkMwMTQ3IiBvZmZzZXQ9IjQuMzA2ODkxZS0wMyIvPiYjeGE7CQk8c3RvcCBzdHlsZT0ic3RvcC1jb2xvcjojRjQwNDREIiBvZmZzZXQ9IjMuOTE4MjY5ZS0wMiIvPiYjeGE7CQk8c3RvcCBzdHlsZT0ic3RvcC1jb2xvcjojMDA2OEY5IiBvZmZzZXQ9IjAuOSIvPiYjeGE7CTwvbGluZWFyR3JhZGllbnQ+JiN4YTsJPHBhdGggZD0iTTE3OC40LDE1NGMxLjItMy42LDEuMi03LjEsMS4yLTEzLjF2LTcuMSYjMTA7JiM5OyYjOTtjMC02LDAtOS41LTMuNi0xMy4xYy0zLjYtMi40LTcuMS0zLjYtMTMuMS0zLjZoLTM1Ljd2NTkuNWgxNi43di0xNy45aDExLjlsOS41LDE3LjloMTUuNWwtMTAuNy0xNy45JiMxMDsmIzk7JiM5O0MxNzMuNiwxNTcuNSwxNzYsMTU3LjUsMTc4LjQsMTU0eiBNMTY1LjMsMTM4LjVjMCwzLjYtMS4yLDcuMS00LjgsNy4xaC0xNi43di0xNy45aDE1LjVjMy42LDAsNiwyLjQsNiw2VjEzOC41eiIgc3R5bGU9ImZpbGw6dXJsKCNTVkdJRF8wMDAwMDA3Mjk2ODQwODMxODc2NDMzNDAyMDAwMDAwNzk0OTIxMzQzNzMzNzU5NTA1N18pOyIvPiYjeGE7CSYjeGE7CQk8bGluZWFyR3JhZGllbnQgZ3JhZGllbnRUcmFuc2Zvcm09Im1hdHJpeCgxIDAgMCAxIDAgLTU0MikiIHkyPSI2NTEuNDQyIiB4Mj0iMTEyLjQ0MTkiIHkxPSI3NTcuMDAwMSIgeDE9IjIxOCIgZ3JhZGllbnRVbml0cz0idXNlclNwYWNlT25Vc2UiIGlkPSJTVkdJRF8wMDAwMDA3ODc1NzI4MDg2OTg2NTU3NzE3MDAwMDAwNTcxMzc0MTcxMzcwMDU5Nzk0N18iPiYjeGE7CQk8c3RvcCBzdHlsZT0ic3RvcC1jb2xvcjojRkMwMTQ3IiBvZmZzZXQ9IjQuMzA2ODkxZS0wMyIvPiYjeGE7CQk8c3RvcCBzdHlsZT0ic3RvcC1jb2xvcjojRjQwNDREIiBvZmZzZXQ9IjMuOTE4MjY5ZS0wMiIvPiYjeGE7CQk8c3RvcCBzdHlsZT0ic3RvcC1jb2xvcjojMDA2OEY5IiBvZmZzZXQ9IjAuOSIvPiYjeGE7CTwvbGluZWFyR3JhZGllbnQ+JiN4YTsJPHBhdGggZD0iTTIxMi41LDE0OGMwLTMzLjktMjcuNi02MS41LTYxLjUtNjEuNSYjMTA7JiM5OyYjOTtTODkuNSwxMTQuMSw4OS41LDE0OHMyNy42LDYxLjUsNjEuNSw2MS41UzIxMi41LDE4MS45LDIxMi41LDE0OHogTTE1MSwyMDAuOGMtMjkuMSwwLTUyLjgtMjMuNy01Mi44LTUyLjhzMjMuNy01Mi44LDUyLjgtNTIuOCYjMTA7JiM5OyYjOTtzNTIuOCwyMy43LDUyLjgsNTIuOFMxODAuMSwyMDAuOCwxNTEsMjAwLjh6IiBzdHlsZT0iZmlsbDp1cmwoI1NWR0lEXzAwMDAwMDc4NzU3MjgwODY5ODY1NTc3MTcwMDAwMDA1NzEzNzQxNzEzNzAwNTk3OTQ3Xyk7Ii8+JiN4YTsJJiN4YTsJCTxsaW5lYXJHcmFkaWVudCBncmFkaWVudFRyYW5zZm9ybT0ibWF0cml4KDEgMCAwIDEgMCAtNTQyKSIgeTI9IjU5NC41Mjg2IiB4Mj0iMTY5LjM1NTIiIHkxPSI3MDAuMDg2NyIgeDE9IjI3NC45MTMyIiBncmFkaWVudFVuaXRzPSJ1c2VyU3BhY2VPblVzZSIgaWQ9IlNWR0lEXzAwMDAwMTI4NDc0ODM1MTg2ODIyMzQxMzIwMDAwMDA5NDM5MjIwNzMzMzM4NzE4ODYzXyI+JiN4YTsJCTxzdG9wIHN0eWxlPSJzdG9wLWNvbG9yOiNGQzAxNDciIG9mZnNldD0iNC4zMDY4OTFlLTAzIi8+JiN4YTsJCTxzdG9wIHN0eWxlPSJzdG9wLWNvbG9yOiNGNDA0NEQiIG9mZnNldD0iMy45MTgyNjllLTAyIi8+JiN4YTsJCTxzdG9wIHN0eWxlPSJzdG9wLWNvbG9yOiMwMDY4RjkiIG9mZnNldD0iMC45Ii8+JiN4YTsJPC9saW5lYXJHcmFkaWVudD4mI3hhOwk8cGF0aCBkPSJNMTU2LjcsNzguNWMzMy42LDIuMiw2MS42LDMwLjMsNjMuOCw2My44JiMxMDsmIzk7JiM5O2MwLjIsMi4zLDIuMSw0LDQuMyw0YzAuMSwwLDAuMiwwLDAuMywwYzIuNC0wLjIsNC4yLTIuMiw0LTQuNmMtMS44LTI3LjEtMTguNS01MS00MS43LTYzLjNoMjdsLTMuMywzLjNjLTEuNywxLjctMS43LDQuNCwwLDYuMSYjMTA7JiM5OyYjOTtjMC44LDAuOCwyLDEuMywzLjEsMS4zczIuMi0wLjQsMy4xLTEuM0wyMjgsNzcuMWMxLjctMS43LDEuNy00LjQsMC02LjFsLTEwLjctMTAuN2MtMS43LTEuNy00LjQtMS43LTYuMSwwcy0xLjcsNC40LDAsNi4xbDMuMywzLjMmIzEwOyYjOTsmIzk7SDE1N2MtMi4zLDAtNC4zLDEuOS00LjMsNC4yQzE1Mi41LDc2LjQsMTU0LjMsNzguMywxNTYuNyw3OC41eiIgc3R5bGU9ImZpbGw6dXJsKCNTVkdJRF8wMDAwMDEyODQ3NDgzNTE4NjgyMjM0MTMyMDAwMDAwOTQzOTIyMDczMzMzODcxODg2M18pOyIvPiYjeGE7CSYjeGE7CQk8bGluZWFyR3JhZGllbnQgZ3JhZGllbnRUcmFuc2Zvcm09Im1hdHJpeCgxIDAgMCAxIDAgLTU0MikiIHkyPSI2NTEuNDgyNyIgeDI9IjExMi40MDExIiB5MT0iNzU3LjA0MDgiIHgxPSIyMTcuOTU5MiIgZ3JhZGllbnRVbml0cz0idXNlclNwYWNlT25Vc2UiIGlkPSJTVkdJRF8wMDAwMDA3MTUzODg4MTI5ODUwODMxNjgzMDAwMDAxMjMyMjUwNjI3NjQ0NDYzODA5Nl8iPiYjeGE7CQk8c3RvcCBzdHlsZT0ic3RvcC1jb2xvcjojRkMwMTQ3IiBvZmZzZXQ9IjQuMzA2ODkxZS0wMyIvPiYjeGE7CQk8c3RvcCBzdHlsZT0ic3RvcC1jb2xvcjojRjQwNDREIiBvZmZzZXQ9IjMuOTE4MjY5ZS0wMiIvPiYjeGE7CQk8c3RvcCBzdHlsZT0ic3RvcC1jb2xvcjojMDA2OEY5IiBvZmZzZXQ9IjAuOSIvPiYjeGE7CTwvbGluZWFyR3JhZGllbnQ+JiN4YTsJPHBhdGggZD0iTTcyLjgsMTQyYzAsMi4zLDEuOSw0LjMsNC4yLDQuM2gwLjEmIzEwOyYjOTsmIzk7YzIuMywwLDQuMi0xLjgsNC4zLTRjMi4yLTMzLjYsMzAuMy02MS42LDYzLjgtNjMuOGMyLjQtMC4yLDQuMi0yLjIsNC00LjZzLTIuMi00LjItNC42LTRjLTI3LjEsMS44LTUxLDE4LjUtNjMuMyw0MS43di0yN2wzLjMsMy4zJiMxMDsmIzk7JiM5O2MwLjgsMC44LDIsMS4zLDMuMSwxLjNzMi4yLTAuNCwzLjEtMS4zYzEuNy0xLjcsMS43LTQuNCwwLTYuMUw4MC4yLDcxLjFjLTEuNy0xLjctNC40LTEuNy02LjEsMEw2My40LDgxLjhjLTEuNywxLjctMS43LDQuNCwwLDYuMSYjMTA7JiM5OyYjOTtjMS43LDEuNyw0LjQsMS43LDYuMSwwbDMuMy0zLjNWMTQyeiIgc3R5bGU9ImZpbGw6dXJsKCNTVkdJRF8wMDAwMDA3MTUzODg4MTI5ODUwODMxNjgzMDAwMDAxMjMyMjUwNjI3NjQ0NDYzODA5Nl8pOyIvPiYjeGE7CSYjeGE7CQk8bGluZWFyR3JhZGllbnQgZ3JhZGllbnRUcmFuc2Zvcm09Im1hdHJpeCgxIDAgMCAxIDAgLTU0MikiIHkyPSI3MDguMzMwMyIgeDI9IjU1LjU1MzYiIHkxPSI4MTMuODg4MiIgeDE9IjE2MS4xMTE4IiBncmFkaWVudFVuaXRzPSJ1c2VyU3BhY2VPblVzZSIgaWQ9IlNWR0lEXzAwMDAwMDMzMzQ2MTMxNjU2MDEzMzg3ODIwMDAwMDE1NDY1ODY4MzY1ODI4MjY5OTc1XyI+JiN4YTsJCTxzdG9wIHN0eWxlPSJzdG9wLWNvbG9yOiNGQzAxNDciIG9mZnNldD0iNC4zMDY4OTFlLTAzIi8+JiN4YTsJCTxzdG9wIHN0eWxlPSJzdG9wLWNvbG9yOiNGNDA0NEQiIG9mZnNldD0iMy45MTgyNjllLTAyIi8+JiN4YTsJCTxzdG9wIHN0eWxlPSJzdG9wLWNvbG9yOiMwMDY4RjkiIG9mZnNldD0iMC45Ii8+JiN4YTsJPC9saW5lYXJHcmFkaWVudD4mI3hhOwk8cGF0aCBkPSJNMTQ1LjMsMjE3LjUmIzEwOyYjOTsmIzk7Yy0zMy42LTIuMi02MS42LTMwLjMtNjMuOC02My44Yy0wLjItMi40LTIuMi00LjItNC42LTRzLTQuMiwyLjItNCw0LjZjMS44LDI3LjEsMTguNSw1MSw0MS43LDYzLjNoLTI3bDMuMy0zLjMmIzEwOyYjOTsmIzk7YzEuNy0xLjcsMS43LTQuNCwwLTYuMXMtNC40LTEuNy02LjEsMGwtMTAuNywxMC43Yy0xLjcsMS43LTEuNyw0LjQsMCw2LjFsMTAuNywxMC43YzAuOCwwLjgsMiwxLjMsMy4xLDEuM3MyLjItMC40LDMuMS0xLjMmIzEwOyYjOTsmIzk7YzEuNy0xLjcsMS43LTQuNCwwLTYuMWwtMy4zLTMuM0gxNDVjMi4zLDAsNC4zLTEuOSw0LjMtNC4yQzE0OS41LDIxOS42LDE0Ny43LDIxNy43LDE0NS4zLDIxNy41eiIgc3R5bGU9ImZpbGw6dXJsKCNTVkdJRF8wMDAwMDAzMzM0NjEzMTY1NjAxMzM4NzgyMDAwMDAxNTQ2NTg2ODM2NTgyODI2OTk3NV8pOyIvPiYjeGE7CSYjeGE7CQk8bGluZWFyR3JhZGllbnQgZ3JhZGllbnRUcmFuc2Zvcm09Im1hdHJpeCgxIDAgMCAxIDAgLTU0MikiIHkyPSI2NTEuMzkwMSIgeDI9IjExMi40OTM5IiB5MT0iNzU2Ljk0ODEiIHgxPSIyMTguMDUyIiBncmFkaWVudFVuaXRzPSJ1c2VyU3BhY2VPblVzZSIgaWQ9IlNWR0lEXzAwMDAwMDM0ODA1MDQ5NzA0NDA4ODAxNzcwMDAwMDA0MDUyNDg4ODY4ODkxNzQyNjM2XyI+JiN4YTsJCTxzdG9wIHN0eWxlPSJzdG9wLWNvbG9yOiNGQzAxNDciIG9mZnNldD0iNC4zMDY4OTFlLTAzIi8+JiN4YTsJCTxzdG9wIHN0eWxlPSJzdG9wLWNvbG9yOiNGNDA0NEQiIG9mZnNldD0iMy45MTgyNjllLTAyIi8+JiN4YTsJCTxzdG9wIHN0eWxlPSJzdG9wLWNvbG9yOiMwMDY4RjkiIG9mZnNldD0iMC45Ii8+JiN4YTsJPC9saW5lYXJHcmFkaWVudD4mI3hhOwk8cGF0aCBkPSJNMjM4LjYsMjA4LjFjLTEuNy0xLjctNC40LTEuNy02LjEsMCYjMTA7JiM5OyYjOTtsLTMuMywzLjNWMTU0YzAtMi4zLTEuOS00LjMtNC4yLTQuM2gtMC4xYy0yLjMsMC00LjIsMS44LTQuMyw0Yy0yLjIsMzMuNi0zMC4zLDYxLjYtNjMuOCw2My44Yy0yLjQsMC4yLTQuMiwyLjItNCw0LjYmIzEwOyYjOTsmIzk7YzAuMiwyLjMsMi4xLDQsNC4zLDRjMC4xLDAsMC4yLDAsMC4zLDBjMjcuMS0xLjgsNTEtMTguNSw2My4zLTQxLjd2MjdsLTMuMy0zLjNjLTEuNy0xLjctNC40LTEuNy02LjEsMHMtMS43LDQuNCwwLDYuMWwxMC43LDEwLjcmIzEwOyYjOTsmIzk7YzAuOCwwLjgsMiwxLjMsMy4xLDEuM3MyLjItMC40LDMuMS0xLjNsMTAuNy0xMC43QzI0MC4zLDIxMi41LDI0MC4zLDIwOS43LDIzOC42LDIwOC4xeiIgc3R5bGU9ImZpbGw6dXJsKCNTVkdJRF8wMDAwMDAzNDgwNTA0OTcwNDQwODgwMTc3MDAwMDAwNDA1MjQ4ODg2ODg5MTc0MjYzNl8pOyIvPiYjeGE7PC9nPiYjeGE7PC9zdmc+;clipPath=inset(18.33% 19.33% 20% 19.33%);fontFamily=Open Sans;fontSource=https%3A%2F%2Ffonts.googleapis.com%2Fcss%3Ffamily%3DOpen%2BSans;rounded=1;" parent="3RlJnTQkYkgjORHTnBK9-0" vertex="1">
          <mxGeometry width="39.78844385177223" height="39.999871745283016" as="geometry" />
        </mxCell>
      </root>
    </mxGraphModel>
  </diagram>
  <diagram id="5SI9ZEX_qIpv3RfnfPZV" name="EdgeX-OpenZiti">
    <mxGraphModel dx="1576" dy="942" grid="1" gridSize="10" guides="1" tooltips="1" connect="1" arrows="1" fold="1" page="1" pageScale="1" pageWidth="1920" pageHeight="1200" math="0" shadow="0">
      <root>
        <mxCell id="0" />
        <mxCell id="1" parent="0" />
        <mxCell id="52DqXLeXgyO4iOZ6ny6b-49" value="" style="rounded=0;whiteSpace=wrap;html=1;fillColor=#f5f5f5;fontColor=#333333;strokeColor=#666666;dashed=1;" parent="1" vertex="1">
          <mxGeometry x="320" y="280" width="140" height="240" as="geometry" />
        </mxCell>
        <mxCell id="52DqXLeXgyO4iOZ6ny6b-15" value="" style="rounded=0;whiteSpace=wrap;html=1;fillColor=none;fontColor=#ffffff;strokeColor=#6d8764;dashed=1;" parent="1" vertex="1">
          <mxGeometry x="520" y="400" width="430" height="280" as="geometry" />
        </mxCell>
        <mxCell id="52DqXLeXgyO4iOZ6ny6b-54" value="" style="endArrow=none;html=1;rounded=0;fillColor=#cce5ff;strokeColor=#FFD966;strokeWidth=2;entryX=-0.024;entryY=0.333;entryDx=0;entryDy=0;entryPerimeter=0;dashed=1;" parent="1" target="52DqXLeXgyO4iOZ6ny6b-5" edge="1">
          <mxGeometry width="50" height="50" relative="1" as="geometry">
            <mxPoint x="660" y="580" as="sourcePoint" />
            <mxPoint x="500" y="570" as="targetPoint" />
          </mxGeometry>
        </mxCell>
        <mxCell id="52DqXLeXgyO4iOZ6ny6b-56" value="" style="endArrow=none;html=1;rounded=0;fillColor=#cce5ff;strokeColor=#FFD966;strokeWidth=2;entryX=1;entryY=0.337;entryDx=0;entryDy=0;entryPerimeter=0;dashed=1;" parent="1" target="52DqXLeXgyO4iOZ6ny6b-8" edge="1">
          <mxGeometry width="50" height="50" relative="1" as="geometry">
            <mxPoint x="660" y="310" as="sourcePoint" />
            <mxPoint x="450" y="640" as="targetPoint" />
            <Array as="points">
              <mxPoint x="660" y="580" />
            </Array>
          </mxGeometry>
        </mxCell>
        <mxCell id="52DqXLeXgyO4iOZ6ny6b-55" value="" style="endArrow=none;html=1;rounded=0;fillColor=#cce5ff;strokeColor=#FFD966;strokeWidth=2;entryX=0.001;entryY=0.171;entryDx=0;entryDy=0;entryPerimeter=0;exitX=-0.005;exitY=0.818;exitDx=0;exitDy=0;exitPerimeter=0;dashed=1;" parent="1" source="52DqXLeXgyO4iOZ6ny6b-21" target="52DqXLeXgyO4iOZ6ny6b-1" edge="1">
          <mxGeometry width="50" height="50" relative="1" as="geometry">
            <mxPoint x="660" y="180" as="sourcePoint" />
            <mxPoint x="650" y="450" as="targetPoint" />
            <Array as="points">
              <mxPoint x="660" y="189" />
              <mxPoint x="660" y="450" />
            </Array>
          </mxGeometry>
        </mxCell>
        <mxCell id="52DqXLeXgyO4iOZ6ny6b-3" value="" style="group" parent="1" connectable="0" vertex="1">
          <mxGeometry x="680" y="420" width="120" height="80" as="geometry" />
        </mxCell>
        <mxCell id="52DqXLeXgyO4iOZ6ny6b-1" value="EdgeX&lt;div&gt;µService&lt;/div&gt;" style="rounded=0;whiteSpace=wrap;html=1;strokeColor=#36393d;fillColor=#eeeeee;" parent="52DqXLeXgyO4iOZ6ny6b-3" vertex="1">
          <mxGeometry y="20" width="100" height="60" as="geometry" />
        </mxCell>
        <mxCell id="52DqXLeXgyO4iOZ6ny6b-2" value="ACL" style="shape=tape;whiteSpace=wrap;html=1;size=0.2562770562770462;flipH=1;fillColor=#6d8764;fontColor=#ffffff;strokeColor=#3A5431;" parent="52DqXLeXgyO4iOZ6ny6b-3" vertex="1">
          <mxGeometry x="80" y="60" width="40" height="20" as="geometry" />
        </mxCell>
        <mxCell id="52DqXLeXgyO4iOZ6ny6b-4" value="" style="group" parent="1" connectable="0" vertex="1">
          <mxGeometry x="820" y="560" width="120" height="80" as="geometry" />
        </mxCell>
        <mxCell id="52DqXLeXgyO4iOZ6ny6b-5" value="EdgeX&lt;div&gt;µService&lt;/div&gt;" style="rounded=0;whiteSpace=wrap;html=1;strokeColor=#36393d;fillColor=#eeeeee;" parent="52DqXLeXgyO4iOZ6ny6b-4" vertex="1">
          <mxGeometry width="100" height="60" as="geometry" />
        </mxCell>
        <mxCell id="52DqXLeXgyO4iOZ6ny6b-6" value="ACL" style="shape=tape;whiteSpace=wrap;html=1;size=0.2562770562770462;flipH=1;fillColor=#6d8764;fontColor=#ffffff;strokeColor=#3A5431;" parent="52DqXLeXgyO4iOZ6ny6b-4" vertex="1">
          <mxGeometry x="79" y="40" width="40" height="20" as="geometry" />
        </mxCell>
        <mxCell id="52DqXLeXgyO4iOZ6ny6b-7" value="" style="group" parent="1" connectable="0" vertex="1">
          <mxGeometry x="540" y="560" width="120" height="80" as="geometry" />
        </mxCell>
        <mxCell id="52DqXLeXgyO4iOZ6ny6b-8" value="EdgeX&lt;div&gt;µService&lt;/div&gt;" style="rounded=0;whiteSpace=wrap;html=1;strokeColor=#36393d;fillColor=#eeeeee;" parent="52DqXLeXgyO4iOZ6ny6b-7" vertex="1">
          <mxGeometry width="100" height="60" as="geometry" />
        </mxCell>
        <mxCell id="52DqXLeXgyO4iOZ6ny6b-9" value="ACL" style="shape=tape;whiteSpace=wrap;html=1;size=0.2562770562770462;flipH=1;fillColor=#6d8764;fontColor=#ffffff;strokeColor=#3A5431;" parent="52DqXLeXgyO4iOZ6ny6b-7" vertex="1">
          <mxGeometry x="79" y="40" width="40" height="20" as="geometry" />
        </mxCell>
        <mxCell id="52DqXLeXgyO4iOZ6ny6b-10" value="&lt;font color=&quot;#6d8764&quot;&gt;E2EE&lt;/font&gt;" style="endArrow=classic;startArrow=classic;html=1;rounded=1;exitX=0.204;exitY=-0.03;exitDx=0;exitDy=0;exitPerimeter=0;dashed=1;fillColor=#6d8764;strokeColor=#3A5431;curved=0;strokeWidth=1;" parent="1" source="52DqXLeXgyO4iOZ6ny6b-5" edge="1">
          <mxGeometry x="0.003" width="50" height="50" relative="1" as="geometry">
            <mxPoint x="730" y="620" as="sourcePoint" />
            <mxPoint x="760" y="500" as="targetPoint" />
            <mxPoint as="offset" />
          </mxGeometry>
        </mxCell>
        <mxCell id="52DqXLeXgyO4iOZ6ny6b-12" value="&lt;font color=&quot;#6d8764&quot;&gt;E2EE&lt;/font&gt;" style="endArrow=classic;startArrow=classic;html=1;rounded=1;entryX=0.208;entryY=1.03;entryDx=0;entryDy=0;exitX=0.8;exitY=0;exitDx=0;exitDy=0;exitPerimeter=0;entryPerimeter=0;dashed=1;fillColor=#6d8764;strokeColor=#3A5431;curved=0;strokeWidth=1;" parent="1" source="52DqXLeXgyO4iOZ6ny6b-8" target="52DqXLeXgyO4iOZ6ny6b-1" edge="1">
          <mxGeometry width="50" height="50" relative="1" as="geometry">
            <mxPoint x="754" y="590" as="sourcePoint" />
            <mxPoint x="700" y="530" as="targetPoint" />
          </mxGeometry>
        </mxCell>
        <mxCell id="52DqXLeXgyO4iOZ6ny6b-16" value="Zero-trust overlay network, no listening ports on underlay" style="rounded=0;whiteSpace=wrap;html=1;strokeColor=none;fontColor=#6d8764;align=left;verticalAlign=bottom;labelBackgroundColor=none;fillColor=none;" parent="1" vertex="1">
          <mxGeometry x="520" y="360" width="420" height="40" as="geometry" />
        </mxCell>
        <mxCell id="52DqXLeXgyO4iOZ6ny6b-19" value="OpenZiti&lt;div&gt;Router (+tunneller)&lt;/div&gt;" style="rounded=0;whiteSpace=wrap;html=1;fillColor=#FFD966;strokeColor=#4D4D4D;fontColor=#000000;dashed=1;" parent="1" vertex="1">
          <mxGeometry x="680" y="260" width="100" height="60" as="geometry" />
        </mxCell>
        <mxCell id="52DqXLeXgyO4iOZ6ny6b-21" value="OpenZiti&lt;div&gt;Controller&lt;/div&gt;" style="rounded=0;whiteSpace=wrap;html=1;fillColor=#FFD966;strokeColor=#4D4D4D;fontColor=#000000;dashed=1;" parent="1" vertex="1">
          <mxGeometry x="680" y="140" width="100" height="60" as="geometry" />
        </mxCell>
        <mxCell id="52DqXLeXgyO4iOZ6ny6b-22" value="" style="endArrow=none;html=1;rounded=0;entryX=0.5;entryY=0;entryDx=0;entryDy=0;exitX=0.5;exitY=1;exitDx=0;exitDy=0;fillColor=#cce5ff;strokeColor=#FF6666;strokeWidth=2;" parent="1" source="52DqXLeXgyO4iOZ6ny6b-19" target="52DqXLeXgyO4iOZ6ny6b-1" edge="1">
          <mxGeometry width="50" height="50" relative="1" as="geometry">
            <mxPoint x="860" y="350" as="sourcePoint" />
            <mxPoint x="830" y="370" as="targetPoint" />
          </mxGeometry>
        </mxCell>
        <mxCell id="52DqXLeXgyO4iOZ6ny6b-23" value="" style="endArrow=none;html=1;rounded=0;entryX=0.5;entryY=0;entryDx=0;entryDy=0;exitX=0.5;exitY=1;exitDx=0;exitDy=0;fillColor=#cce5ff;strokeColor=#FF6666;strokeWidth=2;" parent="1" source="52DqXLeXgyO4iOZ6ny6b-19" target="52DqXLeXgyO4iOZ6ny6b-5" edge="1">
          <mxGeometry width="50" height="50" relative="1" as="geometry">
            <mxPoint x="870" y="320" as="sourcePoint" />
            <mxPoint x="870" y="440" as="targetPoint" />
            <Array as="points">
              <mxPoint x="730" y="360" />
              <mxPoint x="870" y="360" />
            </Array>
          </mxGeometry>
        </mxCell>
        <mxCell id="52DqXLeXgyO4iOZ6ny6b-24" value="" style="endArrow=none;html=1;rounded=0;entryX=0.5;entryY=0;entryDx=0;entryDy=0;exitX=0.5;exitY=1;exitDx=0;exitDy=0;fillColor=#cce5ff;strokeColor=#FF6666;strokeWidth=2;" parent="1" source="52DqXLeXgyO4iOZ6ny6b-19" target="52DqXLeXgyO4iOZ6ny6b-8" edge="1">
          <mxGeometry width="50" height="50" relative="1" as="geometry">
            <mxPoint x="310" y="320.6" as="sourcePoint" />
            <mxPoint x="461" y="559.6" as="targetPoint" />
            <Array as="points">
              <mxPoint x="730" y="360" />
              <mxPoint x="590" y="360" />
            </Array>
          </mxGeometry>
        </mxCell>
        <mxCell id="52DqXLeXgyO4iOZ6ny6b-25" value="" style="endArrow=none;html=1;rounded=0;fillColor=#cce5ff;strokeColor=#FFD966;strokeWidth=2;dashed=1;" parent="1" source="52DqXLeXgyO4iOZ6ny6b-21" target="52DqXLeXgyO4iOZ6ny6b-19" edge="1">
          <mxGeometry width="50" height="50" relative="1" as="geometry">
            <mxPoint x="600" y="200" as="sourcePoint" />
            <mxPoint x="460" y="440" as="targetPoint" />
          </mxGeometry>
        </mxCell>
        <mxCell id="52DqXLeXgyO4iOZ6ny6b-26" value="EdgeX&lt;br&gt;Identity&lt;div&gt;Provider&lt;/div&gt;" style="rounded=0;whiteSpace=wrap;html=1;fillColor=#cdeb8b;strokeColor=#36393d;dashed=1;" parent="1" vertex="1">
          <mxGeometry x="1000" y="140" width="100" height="60" as="geometry" />
        </mxCell>
        <mxCell id="52DqXLeXgyO4iOZ6ny6b-27" value="Redis" style="rounded=0;whiteSpace=wrap;html=1;fillColor=#cdeb8b;strokeColor=#36393d;dashed=1;" parent="1" vertex="1">
          <mxGeometry x="1000" y="260" width="100" height="60" as="geometry" />
        </mxCell>
        <mxCell id="52DqXLeXgyO4iOZ6ny6b-28" value="EdgeX&lt;br&gt;Config&lt;br&gt;Store" style="rounded=0;whiteSpace=wrap;html=1;fillColor=#cdeb8b;strokeColor=#4D4D4D;dashed=1;" parent="1" vertex="1">
          <mxGeometry x="1000" y="400" width="100" height="60" as="geometry" />
        </mxCell>
        <mxCell id="52DqXLeXgyO4iOZ6ny6b-29" value=".well-known/keys" style="endArrow=classic;html=1;rounded=0;fillColor=#cce5ff;strokeColor=#FF6666;strokeWidth=2;targetPerimeterSpacing=8;endFill=1;entryX=0;entryY=0.5;entryDx=0;entryDy=0;" parent="1" source="52DqXLeXgyO4iOZ6ny6b-21" target="52DqXLeXgyO4iOZ6ny6b-26" edge="1">
          <mxGeometry width="50" height="50" relative="1" as="geometry">
            <mxPoint x="750" y="160.6" as="sourcePoint" />
            <mxPoint x="901" y="399.6" as="targetPoint" />
          </mxGeometry>
        </mxCell>
        <mxCell id="52DqXLeXgyO4iOZ6ny6b-30" value="" style="endArrow=none;html=1;rounded=0;fillColor=#cce5ff;strokeColor=#66B2FF;strokeWidth=2;" parent="1" source="52DqXLeXgyO4iOZ6ny6b-19" target="52DqXLeXgyO4iOZ6ny6b-27" edge="1">
          <mxGeometry width="50" height="50" relative="1" as="geometry">
            <mxPoint x="790" y="180" as="sourcePoint" />
            <mxPoint x="1010" y="180" as="targetPoint" />
            <Array as="points">
              <mxPoint x="970" y="290" />
            </Array>
          </mxGeometry>
        </mxCell>
        <mxCell id="52DqXLeXgyO4iOZ6ny6b-32" value="" style="endArrow=none;html=1;rounded=0;fillColor=#cce5ff;strokeColor=#66B2FF;strokeWidth=2;" parent="1" source="52DqXLeXgyO4iOZ6ny6b-19" target="52DqXLeXgyO4iOZ6ny6b-28" edge="1">
          <mxGeometry width="50" height="50" relative="1" as="geometry">
            <mxPoint x="810" y="326.13" as="sourcePoint" />
            <mxPoint x="1030" y="340.13" as="targetPoint" />
            <Array as="points">
              <mxPoint x="970" y="290" />
              <mxPoint x="970" y="430" />
            </Array>
          </mxGeometry>
        </mxCell>
        <mxCell id="52DqXLeXgyO4iOZ6ny6b-33" value="EdgeX&lt;br&gt;Bootstrapping" style="rounded=0;whiteSpace=wrap;html=1;strokeColor=#36393d;fillColor=#eeeeee;" parent="1" vertex="1">
          <mxGeometry x="490" y="140" width="100" height="60" as="geometry" />
        </mxCell>
        <mxCell id="52DqXLeXgyO4iOZ6ny6b-34" value="MGMT&lt;br&gt;API" style="endArrow=classic;html=1;rounded=0;fillColor=#cce5ff;strokeColor=#FF6666;strokeWidth=2;targetPerimeterSpacing=8;endFill=1;entryX=-0.028;entryY=0.513;entryDx=0;entryDy=0;entryPerimeter=0;" parent="1" source="52DqXLeXgyO4iOZ6ny6b-33" target="52DqXLeXgyO4iOZ6ny6b-21" edge="1">
          <mxGeometry width="50" height="50" relative="1" as="geometry">
            <mxPoint x="790" y="180" as="sourcePoint" />
            <mxPoint x="1010" y="180" as="targetPoint" />
          </mxGeometry>
        </mxCell>
        <mxCell id="52DqXLeXgyO4iOZ6ny6b-35" value="&lt;font style=&quot;font-size: 8px;&quot;&gt;HTTP+auth&lt;/font&gt;" style="rounded=0;html=1;strokeColor=none;fontColor=#4D4D4D;align=left;verticalAlign=bottom;labelBackgroundColor=none;fillColor=none;horizontal=1;spacing=2;whiteSpace=wrap;labelPosition=center;verticalLabelPosition=middle;" parent="1" vertex="1">
          <mxGeometry x="1000" y="200" width="100" height="20" as="geometry" />
        </mxCell>
        <mxCell id="52DqXLeXgyO4iOZ6ny6b-36" value="&lt;font style=&quot;font-size: 8px;&quot;&gt;HTTP+user/pwd&lt;/font&gt;" style="rounded=0;html=1;strokeColor=none;fontColor=#4D4D4D;align=left;verticalAlign=bottom;labelBackgroundColor=none;fillColor=none;horizontal=1;spacing=2;whiteSpace=wrap;labelPosition=center;verticalLabelPosition=middle;" parent="1" vertex="1">
          <mxGeometry x="1000" y="320" width="100" height="20" as="geometry" />
        </mxCell>
        <mxCell id="52DqXLeXgyO4iOZ6ny6b-38" value="&lt;font style=&quot;font-size: 8px;&quot;&gt;HTTP+auth&lt;/font&gt;" style="rounded=0;html=1;strokeColor=none;fontColor=#4D4D4D;align=left;verticalAlign=bottom;labelBackgroundColor=none;fillColor=none;horizontal=1;spacing=2;whiteSpace=wrap;labelPosition=center;verticalLabelPosition=middle;" parent="1" vertex="1">
          <mxGeometry x="1000" y="460" width="100" height="20" as="geometry" />
        </mxCell>
        <mxCell id="52DqXLeXgyO4iOZ6ny6b-39" value="ACL" style="shape=tape;whiteSpace=wrap;html=1;size=0.2562770562770462;flipH=1;fillColor=#adb893;strokeColor=#4D4D4D;" parent="1" vertex="1">
          <mxGeometry x="1080" y="440" width="40" height="20" as="geometry" />
        </mxCell>
        <mxCell id="52DqXLeXgyO4iOZ6ny6b-40" value="ACL" style="shape=tape;whiteSpace=wrap;html=1;size=0.2562770562770462;flipH=1;fillColor=#adb893;strokeColor=#4D4D4D;" parent="1" vertex="1">
          <mxGeometry x="1080" y="300" width="40" height="20" as="geometry" />
        </mxCell>
        <mxCell id="52DqXLeXgyO4iOZ6ny6b-41" value="ACL" style="shape=tape;whiteSpace=wrap;html=1;size=0.2562770562770462;flipH=1;fillColor=#adb893;strokeColor=#4D4D4D;" parent="1" vertex="1">
          <mxGeometry x="1080" y="180" width="40" height="20" as="geometry" />
        </mxCell>
        <mxCell id="52DqXLeXgyO4iOZ6ny6b-42" value="Direct access or ZTNA access&lt;br&gt;to non-zitified services" style="rounded=0;html=1;strokeColor=none;fontColor=#66B2FF;align=center;verticalAlign=bottom;labelBackgroundColor=none;fillColor=none;horizontal=1;spacing=2;whiteSpace=wrap;labelPosition=center;verticalLabelPosition=middle;" parent="1" vertex="1">
          <mxGeometry x="780" y="260" width="190" height="30" as="geometry" />
        </mxCell>
        <mxCell id="52DqXLeXgyO4iOZ6ny6b-43" value="" style="endArrow=none;html=1;rounded=0;entryX=0.5;entryY=1;entryDx=0;entryDy=0;fillColor=#cce5ff;strokeColor=#66B2FF;strokeWidth=2;exitX=1;exitY=0.5;exitDx=0;exitDy=0;shadow=0;flowAnimation=0;align=center;verticalAlign=middle;fontFamily=Helvetica;fontSize=11;fontColor=default;labelBackgroundColor=default;" parent="1" source="52DqXLeXgyO4iOZ6ny6b-26" target="52DqXLeXgyO4iOZ6ny6b-8" edge="1">
          <mxGeometry width="50" height="50" relative="1" as="geometry">
            <mxPoint x="1150" y="180" as="sourcePoint" />
            <mxPoint x="1491" y="719" as="targetPoint" />
            <Array as="points">
              <mxPoint x="1140" y="170" />
              <mxPoint x="1140" y="660" />
              <mxPoint x="590" y="660" />
            </Array>
          </mxGeometry>
        </mxCell>
        <mxCell id="52DqXLeXgyO4iOZ6ny6b-45" value="" style="endArrow=none;html=1;rounded=0;fillColor=#cce5ff;strokeColor=#66B2FF;strokeWidth=2;exitX=0.506;exitY=1.004;exitDx=0;exitDy=0;exitPerimeter=0;shadow=0;align=center;verticalAlign=middle;fontFamily=Helvetica;fontSize=11;fontColor=default;labelBackgroundColor=default;" parent="1" source="52DqXLeXgyO4iOZ6ny6b-5" edge="1">
          <mxGeometry width="50" height="50" relative="1" as="geometry">
            <mxPoint x="871.95" y="630" as="sourcePoint" />
            <mxPoint x="870" y="660" as="targetPoint" />
          </mxGeometry>
        </mxCell>
        <mxCell id="52DqXLeXgyO4iOZ6ny6b-46" value="" style="endArrow=none;html=1;rounded=0;fillColor=#cce5ff;strokeColor=#66B2FF;strokeWidth=2;exitX=0.5;exitY=1;exitDx=0;exitDy=0;shadow=0;align=center;verticalAlign=middle;fontFamily=Helvetica;fontSize=11;fontColor=default;labelBackgroundColor=default;" parent="1" source="52DqXLeXgyO4iOZ6ny6b-1" edge="1">
          <mxGeometry width="50" height="50" relative="1" as="geometry">
            <mxPoint x="730.7" y="649.76" as="sourcePoint" />
            <mxPoint x="730" y="660" as="targetPoint" />
          </mxGeometry>
        </mxCell>
        <mxCell id="52DqXLeXgyO4iOZ6ny6b-13" value="&lt;font color=&quot;#6d8764&quot;&gt;E2EE&lt;/font&gt;" style="endArrow=classic;startArrow=classic;html=1;rounded=1;entryX=-0.024;entryY=0.5;entryDx=0;entryDy=0;exitX=1;exitY=0.5;exitDx=0;exitDy=0;entryPerimeter=0;dashed=1;fillColor=#6d8764;strokeColor=#3A5431;curved=0;strokeWidth=1;" parent="1" source="52DqXLeXgyO4iOZ6ny6b-8" target="52DqXLeXgyO4iOZ6ny6b-5" edge="1">
          <mxGeometry width="50" height="50" relative="1" as="geometry">
            <mxPoint x="699.6" y="628.8" as="sourcePoint" />
            <mxPoint x="780.6" y="570.8" as="targetPoint" />
          </mxGeometry>
        </mxCell>
        <mxCell id="52DqXLeXgyO4iOZ6ny6b-47" value="OpenZiti&lt;div&gt;Tunneler&lt;/div&gt;" style="rounded=0;whiteSpace=wrap;html=1;fillColor=#FFD966;strokeColor=#4D4D4D;fontColor=#000000;dashed=1;" parent="1" vertex="1">
          <mxGeometry x="340" y="330" width="100" height="60" as="geometry" />
        </mxCell>
        <mxCell id="52DqXLeXgyO4iOZ6ny6b-48" value="Remote Connection&lt;br&gt;(Browser etc)" style="rounded=0;whiteSpace=wrap;html=1;fillColor=#fad9d5;strokeColor=#ae4132;dashed=1;" parent="1" vertex="1">
          <mxGeometry x="340" y="440" width="100" height="60" as="geometry" />
        </mxCell>
        <mxCell id="52DqXLeXgyO4iOZ6ny6b-50" value="&lt;span style=&quot;color: rgb(0, 0, 0); font-family: Helvetica; font-size: 11px; font-style: normal; font-variant-ligatures: normal; font-variant-caps: normal; font-weight: 400; letter-spacing: normal; orphans: 2; text-indent: 0px; text-transform: none; widows: 2; word-spacing: 0px; -webkit-text-stroke-width: 0px; white-space: nowrap; background-color: rgb(255, 255, 255); text-decoration-thickness: initial; text-decoration-style: initial; text-decoration-color: initial; float: none; display: inline !important;&quot;&gt;Obtain JWT from IdP&lt;/span&gt;" style="text;whiteSpace=wrap;html=1;verticalAlign=middle;align=center;" parent="1" vertex="1">
          <mxGeometry x="590" y="640" width="280" height="40" as="geometry" />
        </mxCell>
        <mxCell id="52DqXLeXgyO4iOZ6ny6b-51" value="" style="endArrow=none;html=1;rounded=0;fillColor=#cce5ff;strokeColor=#FF6666;strokeWidth=2;" parent="1" source="52DqXLeXgyO4iOZ6ny6b-19" target="52DqXLeXgyO4iOZ6ny6b-47" edge="1">
          <mxGeometry width="50" height="50" relative="1" as="geometry">
            <mxPoint x="380" y="190" as="sourcePoint" />
            <mxPoint x="530" y="290" as="targetPoint" />
            <Array as="points">
              <mxPoint x="730" y="360" />
            </Array>
          </mxGeometry>
        </mxCell>
        <mxCell id="52DqXLeXgyO4iOZ6ny6b-52" value="&lt;font color=&quot;#6d8764&quot;&gt;E2EE&lt;/font&gt;" style="endArrow=classic;startArrow=classic;html=1;rounded=1;dashed=1;fillColor=#6d8764;strokeColor=#3A5431;curved=0;strokeWidth=1;" parent="1" source="52DqXLeXgyO4iOZ6ny6b-48" target="52DqXLeXgyO4iOZ6ny6b-1" edge="1">
          <mxGeometry width="50" height="50" relative="1" as="geometry">
            <mxPoint x="419" y="588" as="sourcePoint" />
            <mxPoint x="500" y="530" as="targetPoint" />
          </mxGeometry>
        </mxCell>
        <mxCell id="52DqXLeXgyO4iOZ6ny6b-53" value="&lt;span style=&quot;color: rgb(0, 0, 0); font-family: Helvetica; font-size: 11px; font-style: normal; font-variant-ligatures: normal; font-variant-caps: normal; font-weight: 400; letter-spacing: normal; orphans: 2; text-indent: 0px; text-transform: none; widows: 2; word-spacing: 0px; -webkit-text-stroke-width: 0px; white-space: nowrap; background-color: rgb(255, 255, 255); text-decoration-thickness: initial; text-decoration-style: initial; text-decoration-color: initial; float: none; display: inline !important;&quot;&gt;Zero-trust data plane&lt;/span&gt;" style="text;whiteSpace=wrap;html=1;verticalAlign=middle;align=center;" parent="1" vertex="1">
          <mxGeometry x="460" y="330" width="270" height="40" as="geometry" />
        </mxCell>
        <mxCell id="52DqXLeXgyO4iOZ6ny6b-57" value="" style="endArrow=none;html=1;rounded=0;fillColor=#cce5ff;strokeColor=#FFD966;strokeWidth=2;exitX=0.741;exitY=0.25;exitDx=0;exitDy=0;exitPerimeter=0;dashed=1;" parent="1" target="52DqXLeXgyO4iOZ6ny6b-47" edge="1">
          <mxGeometry width="50" height="50" relative="1" as="geometry">
            <mxPoint x="659.9999999999999" y="309.9" as="sourcePoint" />
            <mxPoint x="439.83" y="309.91999999999996" as="targetPoint" />
            <Array as="points">
              <mxPoint x="390" y="310" />
            </Array>
          </mxGeometry>
        </mxCell>
        <mxCell id="52DqXLeXgyO4iOZ6ny6b-58" value="&lt;span style=&quot;color: rgb(0, 0, 0); font-family: Helvetica; font-size: 11px; font-style: normal; font-variant-ligatures: normal; font-variant-caps: normal; font-weight: 400; letter-spacing: normal; orphans: 2; text-indent: 0px; text-transform: none; widows: 2; word-spacing: 0px; -webkit-text-stroke-width: 0px; white-space: nowrap; background-color: rgb(255, 255, 255); text-decoration-thickness: initial; text-decoration-style: initial; text-decoration-color: initial; float: none; display: inline !important;&quot;&gt;Zero-trust control plane&lt;/span&gt;" style="text;whiteSpace=wrap;html=1;verticalAlign=middle;align=center;" parent="1" vertex="1">
          <mxGeometry x="460" y="290" width="200" height="20" as="geometry" />
        </mxCell>
        <mxCell id="52DqXLeXgyO4iOZ6ny6b-59" value="Admin Workstation" style="text;whiteSpace=wrap;html=1;verticalAlign=middle;align=center;fontSize=15;" parent="1" vertex="1">
          <mxGeometry x="320" y="280" width="140" height="20" as="geometry" />
        </mxCell>
        <mxCell id="52DqXLeXgyO4iOZ6ny6b-60" value="&lt;font style=&quot;font-size: 8px;&quot;&gt;(local identity)&lt;/font&gt;" style="rounded=0;html=1;strokeColor=none;fontColor=#4D4D4D;align=left;verticalAlign=top;labelBackgroundColor=none;fillColor=none;horizontal=1;spacing=0;whiteSpace=wrap;labelPosition=center;verticalLabelPosition=middle;spacingTop=-8;" parent="1" vertex="1">
          <mxGeometry x="330" y="300" width="120" height="20" as="geometry" />
        </mxCell>
      </root>
    </mxGraphModel>
  </diagram>
</mxfile>
